
<svg xmlns="http://www.w3.org/2000/svg" xmlns:xlink="http://www.w3.org/1999/xlink" width="32px" height="32px" viewBox="0 0 32 32" version="1.1">
<g id="surface1">
<path style=" stroke:none;fill-rule:nonzero;fill:rgb(6.666667%,6.666667%,6.666667%);fill-opacity:1;" d="M 10 4 C 8.894531 4 8 4.894531 8 6 L 8 10 L 4 10 L 4 16 L 6 16 L 6 12 L 26 12 L 26 16 L 28 16 L 28 10 L 24 10 L 24 6 C 24 4.894531 23.105469 4 22 4 Z M 10 6 L 22 6 L 22 10 L 10 10 Z M 8.007812 18 C 6.902344 18 6.007812 18.894531 6.007812 20 C 6.007812 21.105469 6.902344 22 8.007812 22 C 9.113281 22 10.007812 21.105469 10.007812 20 C 10.007812 18.894531 9.113281 18 8.007812 18 Z M 5.367188 24 C 4.503906 24.757812 4.007812 25.851562 4.007812 27 L 4.007812 28 L 12.007812 28 L 12.007812 27 C 12.007812 25.851562 11.511719 24.757812 10.648438 24 Z M 5.367188 24 "/>
<path style=" stroke:none;fill-rule:nonzero;fill:rgb(25.882354%,74.509805%,49.803922%);fill-opacity:1;" d="M 26.679688 18 L 20.382812 25.21875 L 17.335938 22.113281 L 16.011719 23.464844 L 20.464844 28 L 28.011719 19.355469 Z M 26.679688 18 "/>
</g>
</svg>
