<svg id="_x31__x2C_5" enable-background="new 0 0 24 24" height="512" viewBox="0 0 24 24" width="512" xmlns="http://www.w3.org/2000/svg"><path d="m15.6.95h-13.2c-.828 0-1.5.672-1.5 1.5v5.7h16.2v-5.7c0-.828-.672-1.5-1.5-1.5z" fill="#2196f3"/><path d="m2.4 23.25h13.2c.828 0 1.5-.672 1.5-1.5v-6.15h-16.2v6.15c0 .828.672 1.5 1.5 1.5z" fill="#2196f3"/><path d="m17.1 8.15h-16.2v7.6h16.2z" fill="#64b5f6"/><circle cx="17.5" cy="17.5" fill="#ffc107" r="5.85"/><path d="m17.5 24c-3.584 0-6.5-2.916-6.5-6.5s2.916-6.5 6.5-6.5 6.5 2.916 6.5 6.5-2.916 6.5-6.5 6.5zm0-11.5c-2.757 0-5 2.243-5 5s2.243 5 5 5 5-2.243 5-5-2.243-5-5-5z"/><path d="m19.25 20c-.151 0-.303-.045-.436-.14l-1.75-1.25c-.197-.14-.314-.368-.314-.61v-3.25c0-.414.336-.75.75-.75s.75.336.75.75v2.864l1.436 1.025c.337.241.415.709.174 1.046-.146.206-.377.315-.61.315z"/><path d="m8.42 16.5h-7.17c-.414 0-.75-.336-.75-.75s.336-.75.75-.75h7.17c.414 0 .75.336.75.75s-.336.75-.75.75z"/><circle cx="13" cy="5" r="1"/><circle cx="9" cy="5" r="1"/><circle cx="5" cy="5" r="1"/><path d="m10.26 24h-7.51c-1.517 0-2.75-1.233-2.75-2.75v-18.5c0-1.517 1.233-2.75 2.75-2.75h12.5c1.517 0 2.75 1.233 2.75 2.75v5.5c0 .414-.336.75-.75.75h-15.75v12.25c0 .689.561 1.25 1.25 1.25h7.51c.414 0 .75.336.75.75s-.336.75-.75.75zm-8.76-16.5h15v-4.75c0-.689-.561-1.25-1.25-1.25h-12.5c-.689 0-1.25.561-1.25 1.25z"/></svg>