
<svg xmlns="http://www.w3.org/2000/svg" xmlns:xlink="http://www.w3.org/1999/xlink" width="32px" height="32px" viewBox="0 0 32 32" version="1.1">
<g id="surface1">
<path style=" stroke:none;fill-rule:nonzero;fill:rgb(93.725491%,94.117647%,94.509804%);fill-opacity:1;" d="M 15 4 C 10.03125 4 6 8.03125 6 13 C 6.003906 13.441406 6.039062 13.878906 6.105469 14.3125 C 3.65625 15.128906 2.003906 17.417969 2 20 C 2 23.3125 4.6875 26 8 26 L 23 26 C 26.867188 26 29.644531 23.042969 29.644531 19.179688 C 28.957031 16.824219 26.875 13.636719 23.964844 12.367188 C 23.902344 12.339844 24 12.09375 23.941406 12.070312 C 23.464844 7.488281 19.605469 4.003906 15 4 Z M 15 6 C 18.867188 6 22 9.132812 22 13 C 21.996094 13.378906 21.960938 13.757812 21.898438 14.128906 C 22.257812 14.046875 22.628906 14.003906 23 14 C 25.761719 14 28 16.238281 28 19 C 28 21.761719 25.761719 24 23 24 L 8 24 C 5.789062 24 4 22.210938 4 20 C 4 17.789062 5.789062 16 8 16 C 8.238281 16 8.480469 16.023438 8.714844 16.066406 C 8.246094 15.113281 8.003906 14.0625 8 13 C 8 9.132812 11.132812 6 15 6 Z M 15 6 "/>
<path style=" stroke:none;fill-rule:nonzero;fill:rgb(15.294118%,68.235296%,37.64706%);fill-opacity:1;" d="M 22 12 C 26.433594 12 30 15.566406 30 20 C 30 24.433594 26.433594 28 22 28 C 17.566406 28 14 24.433594 14 20 C 14 15.566406 17.566406 12 22 12 Z M 22 12 "/>
<path style=" stroke:none;fill-rule:evenodd;fill:rgb(100%,100%,100%);fill-opacity:1;" d="M 26 16 L 20 22 L 18 20 L 16 22 L 20 26 L 28 18 Z M 26 16 "/>
</g>
</svg>
