
<svg xmlns="http://www.w3.org/2000/svg" xmlns:xlink="http://www.w3.org/1999/xlink" width="64px" height="64px" viewBox="0 0 64 64" version="1.1">
<g id="surface1">
<path style=" stroke:none;fill-rule:nonzero;fill:rgb(6.666667%,6.666667%,6.666667%);fill-opacity:1;" d="M 32 10.667969 C 20.21875 10.667969 10.667969 20.21875 10.667969 32 C 10.667969 43.78125 20.21875 53.332031 32 53.332031 C 43.78125 53.332031 53.332031 43.78125 53.332031 32 C 53.332031 20.21875 43.78125 10.667969 32 10.667969 Z M 32 13.332031 C 42.308594 13.332031 50.667969 21.691406 50.667969 32 C 50.667969 42.308594 42.308594 50.667969 32 50.667969 C 21.691406 50.667969 13.332031 42.308594 13.332031 32 C 13.332031 21.691406 21.691406 13.332031 32 13.332031 Z M 32 18.667969 C 28.734375 18.671875 25.585938 19.875 23.152344 22.046875 L 25.042969 23.9375 C 26.972656 22.261719 29.445312 21.339844 32 21.332031 C 37.890625 21.332031 42.667969 26.109375 42.667969 32 L 45.332031 32 C 45.332031 24.636719 39.363281 18.667969 32 18.667969 Z M 35.582031 24.441406 L 29.859375 37.714844 C 29.53125 38.085938 29.296875 38.539062 29.171875 39.03125 C 29.152344 39.109375 29.132812 39.195312 29.121094 39.277344 L 29.105469 39.3125 L 29.121094 39.3125 C 28.878906 40.808594 29.707031 42.210938 31.035156 42.546875 C 32.367188 42.882812 33.757812 42.039062 34.253906 40.605469 L 34.277344 40.609375 L 34.277344 40.53125 C 34.296875 40.464844 34.320312 40.398438 34.339844 40.332031 C 34.457031 39.847656 34.460938 39.339844 34.355469 38.863281 Z M 19.933594 26.371094 C 19.105469 28.132812 18.671875 30.054688 18.667969 32 L 21.332031 32 C 21.335938 30.773438 21.550781 29.558594 21.96875 28.40625 Z M 19.933594 26.371094 "/>
</g>
</svg>
