
<svg xmlns="http://www.w3.org/2000/svg" xmlns:xlink="http://www.w3.org/1999/xlink" width="64px" height="64px" viewBox="0 0 64 64" version="1.1">
<g id="surface1">
<path style=" stroke:none;fill-rule:nonzero;fill:rgb(6.666667%,6.666667%,6.666667%);fill-opacity:1;" d="M 32.011719 10.667969 C 31.160156 10.667969 30.335938 10.734375 29.511719 10.835938 C 28.699219 10.929688 27.871094 11.066406 27.09375 11.25 C 26.84375 11.308594 26.601562 11.429688 26.34375 11.5 C 26.121094 11.5625 25.898438 11.601562 25.679688 11.667969 C 25.398438 11.757812 25.109375 11.828125 24.84375 11.917969 C 24.558594 12.019531 24.292969 12.140625 24.007812 12.253906 C 23.460938 12.472656 22.949219 12.738281 22.425781 13 C 22.234375 13.097656 22.027344 13.152344 21.839844 13.253906 C 21.226562 13.574219 20.664062 13.953125 20.09375 14.335938 C 19.875 14.480469 19.640625 14.597656 19.425781 14.75 C 19.335938 14.816406 19.261719 14.851562 19.175781 14.917969 C 18.925781 15.109375 18.664062 15.296875 18.425781 15.5 C 18.140625 15.738281 17.867188 16 17.589844 16.25 C 17.507812 16.332031 17.425781 16.421875 17.339844 16.5 C 17.3125 16.53125 17.289062 16.554688 17.257812 16.585938 C 17.214844 16.628906 17.21875 16.710938 17.175781 16.753906 C 16.617188 17.296875 16.003906 17.816406 15.507812 18.417969 C 15.496094 18.445312 15.523438 18.484375 15.507812 18.5 C 15.027344 19.085938 14.59375 19.695312 14.175781 20.335938 C 14.121094 20.421875 14.0625 20.496094 14.007812 20.585938 C 13.96875 20.648438 13.882812 20.683594 13.839844 20.753906 C 13.679688 21.015625 13.570312 21.3125 13.421875 21.585938 C 13.375 21.675781 13.304688 21.75 13.253906 21.839844 C 13.054688 22.226562 12.855469 22.609375 12.671875 23.007812 C 12.660156 23.03125 12.683594 23.066406 12.671875 23.089844 C 12.359375 23.761719 12.078125 24.457031 11.835938 25.171875 C 11.785156 25.3125 11.71875 25.445312 11.667969 25.585938 C 11.660156 25.613281 11.675781 25.644531 11.667969 25.667969 C 11.617188 25.832031 11.550781 26 11.5 26.171875 C 11.304688 26.855469 11.128906 27.539062 11 28.25 C 10.910156 28.761719 10.800781 29.308594 10.75 29.835938 C 10.675781 30.542969 10.667969 31.28125 10.667969 32 C 10.667969 33.078125 10.761719 34.132812 10.917969 35.167969 C 10.933594 35.277344 10.898438 35.394531 10.917969 35.5 C 11.035156 36.210938 11.230469 36.902344 11.417969 37.582031 C 11.488281 37.839844 11.589844 38.078125 11.667969 38.332031 C 11.777344 38.675781 11.878906 38.996094 12.003906 39.332031 C 12.207031 39.898438 12.417969 40.457031 12.667969 40.996094 C 12.800781 41.28125 12.941406 41.558594 13.085938 41.832031 C 13.492188 42.609375 13.925781 43.363281 14.417969 44.082031 C 14.460938 44.144531 14.539062 44.183594 14.585938 44.25 C 15.113281 45 15.636719 45.742188 16.253906 46.417969 C 16.359375 46.535156 16.476562 46.636719 16.585938 46.75 C 16.691406 46.863281 16.808594 46.972656 16.917969 47.082031 C 17.488281 47.652344 18.121094 48.164062 18.753906 48.667969 C 19.570312 49.316406 20.429688 49.890625 21.335938 50.414062 C 21.371094 50.441406 21.386719 50.476562 21.421875 50.496094 C 21.5625 50.578125 21.695312 50.671875 21.835938 50.746094 C 22.679688 51.164062 23.679688 51.613281 24.335938 51.914062 C 24.628906 52.027344 24.953125 52.066406 25.253906 52.164062 C 25.394531 52.214844 25.527344 52.289062 25.671875 52.332031 C 26.03125 52.441406 26.382812 52.574219 26.753906 52.667969 C 26.863281 52.695312 26.972656 52.722656 27.085938 52.75 C 27.863281 52.933594 28.691406 53.070312 29.5 53.164062 C 30.324219 53.261719 31.148438 53.332031 32.003906 53.332031 C 32.910156 53.332031 33.792969 53.277344 34.667969 53.164062 C 35.640625 53.039062 36.484375 52.835938 37.335938 52.664062 C 41.863281 51.503906 45.765625 48.875 48.585938 45.335938 C 48.660156 45.242188 48.761719 45.179688 48.835938 45.082031 C 48.859375 45.050781 48.894531 45.03125 48.917969 45 C 48.957031 44.953125 48.964844 44.882812 49 44.832031 C 50.660156 42.632812 51.871094 40.085938 52.585938 37.335938 C 52.734375 36.757812 52.898438 36.183594 53 35.585938 C 53.011719 35.507812 52.988281 35.417969 53 35.335938 C 53.015625 35.230469 53.066406 35.125 53.082031 35.003906 C 53.097656 34.886719 53.152344 34.785156 53.164062 34.667969 L 53.082031 34.667969 C 53.199219 33.792969 53.332031 32.914062 53.332031 32.003906 C 53.332031 30.53125 53.199219 29.0625 52.917969 27.671875 C 52.894531 27.558594 52.859375 27.453125 52.835938 27.339844 C 52.710938 26.785156 52.503906 26.210938 52.332031 25.671875 C 52.324219 25.648438 52.339844 25.613281 52.332031 25.589844 C 52.300781 25.488281 52.285156 25.441406 52.25 25.339844 C 52.148438 25.023438 52.035156 24.652344 51.917969 24.339844 C 51.886719 24.253906 51.871094 24.171875 51.835938 24.089844 C 51.71875 23.800781 51.546875 23.542969 51.417969 23.257812 C 51.414062 23.257812 51.425781 23.1875 51.417969 23.171875 C 51.351562 23.03125 51.238281 22.898438 51.167969 22.757812 C 50.90625 22.214844 50.640625 21.691406 50.332031 21.175781 C 50.179688 20.914062 50.082031 20.597656 49.917969 20.339844 C 49.855469 20.242188 49.734375 20.183594 49.667969 20.089844 C 49.488281 19.824219 49.273438 19.597656 49.082031 19.339844 C 48.871094 19.074219 48.710938 18.765625 48.5 18.507812 C 48.484375 18.480469 48.511719 18.4375 48.5 18.421875 C 48.039062 17.867188 47.511719 17.347656 47 16.839844 C 46.75 16.59375 46.507812 16.324219 46.25 16.089844 C 46.175781 16.023438 46.074219 15.988281 46 15.921875 C 45.441406 15.4375 44.851562 15.015625 44.25 14.589844 C 44.101562 14.488281 43.980469 14.355469 43.832031 14.257812 C 43.644531 14.132812 43.4375 14.042969 43.25 13.925781 C 42.890625 13.699219 42.539062 13.460938 42.167969 13.257812 C 41.839844 13.078125 41.503906 12.917969 41.167969 12.757812 C 40.597656 12.484375 40.015625 12.230469 39.417969 12.007812 C 38.707031 11.742188 37.992188 11.527344 37.25 11.339844 C 36.597656 11.175781 35.925781 11.027344 35.25 10.925781 C 34.191406 10.761719 33.105469 10.675781 32 10.675781 M 32 13.339844 C 32.796875 13.339844 33.558594 13.414062 34.332031 13.507812 C 34.8125 13.570312 35.28125 13.664062 35.75 13.757812 C 35.777344 13.757812 35.804688 13.757812 35.832031 13.757812 C 36.273438 13.851562 36.734375 13.96875 37.164062 14.09375 C 37.421875 14.164062 37.664062 14.261719 37.914062 14.34375 C 38.371094 14.496094 38.804688 14.65625 39.246094 14.84375 C 39.765625 15.058594 40.257812 15.25 40.75 15.511719 C 40.664062 15.535156 40.582031 15.566406 40.496094 15.59375 C 40.371094 15.636719 40.195312 15.847656 40.164062 15.925781 C 40.109375 16.054688 40.175781 16.234375 40.164062 16.425781 C 40.265625 16.472656 40.324219 16.664062 40.496094 16.761719 C 40.5625 16.796875 40.605469 16.734375 40.664062 16.761719 C 40.765625 16.816406 40.851562 16.992188 40.832031 17.09375 C 40.804688 17.238281 40.597656 17.152344 40.5 17.261719 C 40.515625 17.46875 40.386719 17.542969 40.332031 17.675781 C 40.363281 17.765625 40.484375 17.742188 40.5 17.84375 C 40.480469 17.960938 40.289062 17.976562 40.332031 18.097656 C 40.523438 18.246094 40.734375 18.039062 40.917969 18.011719 C 41.3125 17.960938 41.671875 18.121094 41.917969 17.929688 C 41.882812 17.742188 42.183594 17.683594 42.167969 17.515625 C 42.152344 17.386719 41.925781 17.351562 41.832031 17.265625 C 41.78125 17.214844 41.726562 17.105469 41.664062 17.011719 C 41.597656 16.90625 41.496094 16.78125 41.414062 16.679688 C 41.3125 16.542969 41.082031 16.367188 41.082031 16.265625 C 41.085938 16.144531 41.21875 16.097656 41.25 15.929688 C 41.21875 15.777344 40.9375 15.929688 40.917969 15.761719 C 40.921875 15.710938 40.972656 15.628906 41 15.59375 C 41.398438 15.8125 41.792969 16.070312 42.167969 16.34375 C 42.253906 16.398438 42.332031 16.453125 42.417969 16.511719 C 42.707031 16.726562 42.96875 16.964844 43.25 17.179688 C 43.074219 17.210938 42.984375 17.417969 42.835938 17.59375 C 42.734375 17.71875 42.570312 17.863281 42.421875 17.925781 C 42.34375 17.960938 42.238281 17.886719 42.167969 17.925781 C 42.070312 17.996094 42.035156 18.183594 41.917969 18.261719 C 41.835938 18.316406 41.589844 18.511719 41.503906 18.511719 C 41.402344 18.515625 41.242188 18.40625 41.167969 18.429688 C 41.0625 18.464844 41.125 18.632812 41 18.679688 C 40.765625 18.761719 40.335938 18.496094 40.253906 18.847656 C 40.355469 19.050781 40.660156 18.984375 40.835938 19.097656 C 40.949219 19.167969 41.140625 19.480469 41.167969 19.597656 C 41.195312 19.699219 41.210938 20.078125 41.167969 20.183594 C 41.058594 20.464844 40.746094 20.441406 40.421875 20.433594 C 40.328125 20.429688 40.253906 20.433594 40.167969 20.433594 C 39.617188 20.394531 39.085938 20.207031 38.835938 20.601562 C 38.855469 20.902344 38.902344 21.089844 38.835938 21.351562 C 38.789062 21.542969 38.578125 21.683594 38.585938 21.851562 C 38.589844 21.9375 38.730469 22.070312 38.753906 22.183594 C 38.765625 22.246094 38.722656 22.378906 38.753906 22.433594 C 38.84375 22.613281 39.09375 22.410156 39.253906 22.433594 C 39.414062 22.460938 39.589844 22.757812 39.589844 22.9375 C 39.585938 23.058594 39.5 23.234375 39.421875 23.351562 C 39.265625 23.589844 38.976562 23.558594 38.753906 23.683594 C 38.566406 23.789062 38.53125 24.003906 38.421875 24.1875 C 38.304688 24.382812 38.203125 24.480469 38.253906 24.769531 C 38.09375 25.085938 37.917969 25.289062 37.585938 25.4375 C 37.488281 25.480469 37.339844 25.539062 37.253906 25.605469 C 37.179688 25.65625 37.101562 25.742188 37 25.855469 C 36.875 25.992188 36.734375 26.082031 36.667969 26.1875 C 36.617188 26.269531 36.640625 26.414062 36.585938 26.523438 C 36.507812 26.671875 36.351562 26.789062 36.253906 26.9375 C 36.207031 27.007812 36.136719 27.09375 36.085938 27.1875 C 35.972656 27.394531 35.816406 27.589844 35.832031 27.773438 C 35.851562 27.949219 36.070312 27.953125 36.085938 28.105469 C 36.09375 28.191406 35.996094 28.261719 36 28.355469 C 36.003906 28.492188 36.074219 28.585938 36.085938 28.6875 C 36.109375 28.953125 35.96875 29.007812 35.917969 29.191406 C 35.894531 29.273438 35.9375 29.371094 35.917969 29.441406 C 35.875 29.574219 35.667969 29.703125 35.664062 29.855469 C 35.664062 29.96875 35.824219 30.117188 35.832031 30.273438 C 35.839844 30.378906 35.734375 30.425781 35.75 30.523438 C 35.789062 30.71875 36.183594 30.953125 36.335938 31.105469 C 36.535156 31.308594 36.75 31.476562 36.835938 31.691406 C 36.910156 31.871094 36.945312 32.136719 37.085938 32.273438 C 37.191406 32.371094 37.371094 32.417969 37.503906 32.523438 C 37.628906 32.621094 37.789062 32.671875 37.917969 32.777344 C 38.136719 32.945312 38.40625 33.300781 38.753906 33.277344 C 38.933594 33.25 39.132812 33.144531 39.335938 33.109375 C 39.546875 33.070312 39.789062 33.003906 40.003906 33.027344 C 40.167969 33.050781 40.335938 33.203125 40.503906 33.195312 C 40.683594 33.195312 40.886719 33.03125 41.089844 32.941406 C 41.441406 32.792969 41.992188 32.535156 42.503906 32.609375 C 42.894531 32.667969 42.902344 33.1875 43.171875 33.359375 C 43.484375 33.386719 43.753906 33.214844 44.007812 33.277344 C 44.191406 33.320312 44.402344 33.628906 44.421875 33.777344 C 44.441406 33.933594 44.277344 34.101562 44.253906 34.195312 C 44.207031 34.402344 44.207031 34.644531 44.171875 34.777344 C 44.140625 34.878906 44.085938 35.007812 44.089844 35.109375 C 44.089844 35.203125 44.242188 35.488281 44.339844 35.613281 C 44.457031 35.761719 44.613281 35.867188 44.753906 36.027344 C 44.988281 36.316406 45.167969 36.65625 45.339844 37.027344 C 45.382812 37.125 45.296875 37.230469 45.339844 37.359375 C 45.261719 37.957031 45.066406 38.363281 44.671875 39.027344 C 44.488281 39.238281 44.25 39.425781 44.257812 39.691406 C 44.242188 40.332031 44.621094 40.738281 44.589844 41.359375 C 44.527344 42.191406 44.652344 42.246094 44.589844 42.691406 C 44.871094 42.832031 44.671875 43.3125 44.589844 43.609375 C 44.46875 43.960938 44.324219 44.039062 44.257812 44.273438 C 44.445312 44.355469 44.710938 44.324219 44.921875 44.273438 C 44.921875 44.273438 45.179688 45.34375 45.175781 45.355469 C 43.023438 47.480469 40.324219 49.054688 37.339844 49.9375 C 35.875 50.292969 35.4375 50.292969 34.757812 50.4375 C 33.867188 50.585938 32.9375 50.691406 32.007812 50.691406 C 31.359375 50.691406 30.71875 50.664062 30.089844 50.605469 C 29.605469 50.558594 29.148438 50.441406 28.675781 50.355469 C 28.535156 50.328125 28.398438 50.304688 28.257812 50.273438 C 27.824219 50.128906 27.324219 50.039062 26.925781 49.941406 C 26.472656 49.8125 26.03125 49.683594 25.59375 49.523438 C 25.628906 49.488281 25.664062 49.496094 25.675781 49.441406 C 25.699219 49.335938 25.679688 49.277344 25.675781 49.109375 C 25.714844 48.9375 25.886719 48.953125 25.925781 48.777344 C 25.851562 48.648438 25.703125 48.675781 25.59375 48.609375 C 25.484375 48.542969 25.410156 48.410156 25.425781 48.273438 C 25.609375 48.199219 25.957031 48.449219 26.089844 48.191406 C 26.15625 48.070312 26 47.816406 26.089844 47.691406 C 26.152344 47.609375 26.542969 47.542969 26.675781 47.523438 C 26.863281 47.492188 27.070312 47.496094 27.175781 47.441406 C 27.292969 47.363281 27.445312 47.160156 27.425781 46.9375 C 27.417969 46.835938 27.339844 46.78125 27.257812 46.6875 C 27.191406 46.609375 27.222656 46.511719 27.175781 46.4375 C 27.09375 46.3125 26.964844 46.28125 26.925781 46.105469 C 27.183594 46.054688 27.554688 46.375 27.925781 46.273438 C 28.101562 46.222656 28.34375 45.769531 28.425781 45.605469 C 28.453125 45.554688 28.398438 45.5 28.425781 45.4375 C 28.457031 45.367188 28.585938 45.308594 28.59375 45.269531 C 28.621094 45.175781 28.574219 45.082031 28.59375 45.019531 C 28.660156 44.839844 28.820312 44.820312 28.929688 44.6875 C 29.007812 44.585938 29.101562 44.453125 29.179688 44.351562 C 29.261719 44.242188 29.289062 44.117188 29.347656 44.019531 C 29.398438 43.695312 29.1875 43.472656 29.265625 43.1875 C 29.347656 42.867188 29.785156 42.746094 30.097656 42.601562 C 30.207031 42.550781 30.34375 42.46875 30.433594 42.433594 C 30.644531 42.359375 30.902344 42.339844 31.097656 42.265625 C 31.433594 42.144531 31.515625 41.820312 31.683594 41.515625 C 31.761719 41.371094 31.835938 41.203125 31.851562 41.101562 C 31.863281 41.007812 31.832031 40.960938 31.851562 40.851562 C 31.867188 40.742188 31.902344 40.632812 31.933594 40.519531 C 31.96875 40.363281 32.015625 40.105469 32.015625 39.933594 C 32.015625 39.792969 31.9375 39.726562 31.933594 39.601562 C 31.910156 39.140625 32.097656 39.019531 32.265625 38.765625 C 32.351562 38.640625 32.375 38.523438 32.433594 38.433594 C 32.722656 38.003906 33.222656 37.832031 33.183594 37.183594 C 33.171875 36.96875 33.089844 36.5 32.933594 36.433594 C 32.84375 36.394531 32.648438 36.40625 32.515625 36.351562 C 32.097656 36.195312 31.785156 35.632812 31.347656 35.601562 C 31.257812 35.601562 31.203125 35.683594 31.097656 35.683594 C 30.925781 35.683594 30.707031 35.542969 30.515625 35.515625 C 30.390625 35.492188 30.171875 35.550781 30.097656 35.515625 C 29.988281 35.464844 30.019531 35.246094 29.929688 35.183594 C 29.859375 35.136719 29.707031 35.144531 29.597656 35.101562 C 29.421875 35.035156 29.296875 34.953125 29.097656 34.933594 C 29.035156 34.929688 28.917969 34.933594 28.84375 34.933594 C 28.734375 34.90625 28.617188 34.828125 28.511719 34.765625 C 28.382812 34.6875 28.316406 34.625 28.261719 34.515625 C 28.378906 34.132812 28.003906 34.070312 27.929688 33.847656 C 27.890625 33.746094 27.964844 33.609375 27.929688 33.515625 C 27.882812 33.382812 27.738281 33.292969 27.59375 33.183594 C 27.335938 32.984375 27.132812 32.8125 26.761719 32.765625 C 26.597656 32.738281 26.375 32.765625 26.175781 32.765625 C 25.96875 32.738281 25.746094 32.613281 25.59375 32.433594 C 25.441406 32.257812 25.390625 32.101562 25.257812 32.015625 C 25.132812 31.9375 24.929688 31.933594 24.84375 31.847656 C 24.804688 31.8125 24.796875 31.765625 24.761719 31.679688 C 24.699219 31.554688 24.597656 31.417969 24.679688 31.265625 C 24.535156 31.191406 24.585938 31.457031 24.425781 31.433594 C 24.289062 31.234375 24.15625 31.125 23.84375 31.183594 C 23.699219 31.210938 23.59375 31.34375 23.425781 31.351562 C 23.289062 31.351562 23.191406 31.210938 23.011719 31.183594 C 22.871094 31.15625 22.691406 31.277344 22.59375 31.265625 C 22.445312 31.234375 22.402344 31.109375 22.261719 31.015625 C 22.160156 30.949219 21.984375 30.761719 21.929688 30.765625 C 21.75 30.765625 21.59375 31.144531 21.34375 31.015625 C 21.226562 30.863281 21.570312 30.824219 21.425781 30.679688 C 21.320312 30.570312 21.265625 30.707031 21.175781 30.765625 C 21.078125 30.832031 20.953125 30.890625 20.84375 30.933594 C 20.597656 31.023438 20.453125 31 20.261719 31.101562 C 20.082031 31.191406 20.027344 31.335938 19.925781 31.515625 C 19.84375 31.664062 19.714844 31.921875 19.59375 31.929688 C 19.445312 31.929688 19.3125 31.738281 19.175781 31.679688 C 18.769531 31.503906 18.515625 31.761719 18.175781 31.761719 C 17.863281 31.761719 17.414062 31.308594 17.429688 31.015625 C 17.4375 30.835938 17.570312 30.570312 17.597656 30.347656 C 17.613281 30.171875 17.761719 30.007812 17.765625 29.847656 C 17.765625 29.632812 17.402344 29.457031 17.261719 29.429688 C 16.929688 29.371094 16.476562 29.59375 16.09375 29.429688 C 16.023438 29.3125 16.21875 29.214844 16.261719 29.097656 C 16.285156 29.03125 16.238281 29.007812 16.261719 28.929688 C 16.304688 28.816406 16.460938 28.71875 16.515625 28.597656 C 16.554688 28.507812 16.554688 28.378906 16.597656 28.265625 C 16.640625 28.132812 16.753906 28.019531 16.765625 27.929688 C 16.777344 27.8125 16.691406 27.675781 16.597656 27.597656 C 16.300781 27.625 16.097656 27.597656 15.929688 27.679688 C 15.546875 27.855469 15.648438 28.390625 15.261719 28.515625 C 15.128906 28.558594 14.910156 28.570312 14.761719 28.597656 C 14.636719 28.625 14.476562 28.683594 14.347656 28.679688 C 14.191406 28.675781 13.9375 28.527344 13.84375 28.429688 C 13.820312 28.402344 13.78125 28.332031 13.761719 28.261719 C 13.765625 28.234375 13.757812 28.207031 13.761719 28.179688 C 13.882812 27.585938 14.011719 26.996094 14.179688 26.429688 C 14.1875 26.402344 14.171875 26.371094 14.179688 26.347656 C 14.289062 25.976562 14.453125 25.628906 14.59375 25.265625 C 14.628906 25.238281 14.644531 25.203125 14.675781 25.183594 C 14.882812 25.042969 15.09375 24.867188 15.34375 24.847656 C 15.496094 24.847656 15.78125 24.902344 15.925781 24.933594 C 16.058594 24.957031 16.144531 25.089844 16.261719 25.101562 C 16.589844 25.125 16.65625 24.824219 16.925781 24.683594 C 17.203125 24.722656 17.34375 24.65625 17.59375 24.683594 C 17.765625 24.710938 17.960938 24.925781 18.09375 24.933594 C 18.207031 24.933594 18.234375 24.75 18.34375 24.765625 C 18.453125 24.792969 18.664062 25.054688 18.679688 25.183594 C 18.699219 25.34375 18.550781 25.507812 18.597656 25.683594 C 18.765625 25.855469 19.105469 25.832031 19.34375 25.933594 C 19.503906 25.804688 19.371094 25.621094 19.34375 25.433594 C 19.339844 25.351562 19.355469 25.257812 19.34375 25.183594 C 19.328125 25.054688 19.261719 24.957031 19.261719 24.851562 C 19.261719 24.34375 19.671875 24.050781 20.011719 23.851562 C 20.160156 23.761719 20.300781 23.664062 20.429688 23.597656 C 20.605469 23.507812 20.695312 23.429688 20.84375 23.347656 C 21.113281 23.195312 21.382812 23.101562 21.59375 22.933594 C 21.691406 22.703125 21.582031 22.410156 21.59375 22.183594 C 21.691406 22.125 21.738281 22.183594 21.84375 22.183594 C 22.007812 22.148438 22.082031 21.941406 22.175781 21.851562 C 22.230469 21.796875 22.359375 21.734375 22.425781 21.683594 C 22.589844 21.554688 22.621094 21.40625 22.761719 21.347656 C 22.8125 21.324219 22.933594 21.304688 23.011719 21.265625 C 23.117188 21.238281 23.257812 21.160156 23.425781 21.097656 C 23.539062 21.0625 23.800781 21.058594 23.84375 21.015625 C 23.898438 20.960938 23.828125 20.761719 23.84375 20.683594 C 23.929688 20.28125 24.570312 20.234375 24.925781 20.097656 C 25.175781 20.003906 25.402344 19.796875 25.675781 19.847656 C 25.621094 20.039062 25.382812 19.949219 25.425781 20.183594 C 25.484375 20.503906 25.894531 20.148438 26.007812 20.097656 C 26.222656 20.007812 26.640625 19.953125 26.925781 19.847656 C 27.175781 19.757812 27.578125 19.636719 27.339844 19.347656 C 27.144531 19.347656 27.097656 19.523438 26.925781 19.597656 C 26.808594 19.625 26.777344 19.527344 26.675781 19.515625 C 26.578125 19.515625 26.523438 19.617188 26.425781 19.597656 C 26.324219 19.570312 26.191406 19.378906 26.171875 19.265625 C 26.132812 18.96875 26.46875 18.902344 26.589844 18.679688 C 26.507812 18.410156 26.148438 18.617188 25.921875 18.511719 C 25.945312 18.351562 26.070312 18.210938 26.257812 18.179688 C 26.410156 18.152344 26.75 18.207031 26.839844 18.261719 C 26.894531 18.308594 26.839844 18.4375 26.921875 18.511719 C 27.015625 18.597656 27.140625 18.539062 27.257812 18.511719 C 27.300781 18.3125 26.972656 18.398438 27.003906 18.261719 C 27.246094 18.105469 27.710938 18.21875 28.003906 18.179688 C 28.171875 18.152344 28.355469 18.015625 28.507812 17.929688 C 28.652344 17.847656 28.769531 17.714844 28.921875 17.847656 C 28.964844 17.992188 28.835938 18.023438 28.753906 18.097656 C 28.484375 18.339844 28.214844 18.648438 28.003906 18.929688 C 28.136719 19.058594 28.367188 18.988281 28.589844 19.015625 C 28.675781 19.015625 28.75 19.082031 28.839844 19.097656 C 28.945312 19.125 29.089844 19.066406 29.171875 19.097656 C 29.324219 19.132812 29.359375 19.347656 29.507812 19.347656 C 29.75 19.347656 29.726562 19.015625 29.589844 18.847656 C 29.632812 18.679688 29.730469 18.632812 29.671875 18.511719 C 29.5625 18.292969 29.109375 18.550781 29.089844 18.261719 C 29.074219 18.082031 29.273438 18.0625 29.339844 17.929688 C 29.308594 17.585938 29.621094 17.570312 29.589844 17.261719 C 29.574219 17.132812 29.429688 17.132812 29.339844 17.011719 C 29.292969 16.949219 29.3125 16.808594 29.257812 16.761719 C 29.070312 16.605469 28.695312 16.644531 28.671875 16.34375 C 28.660156 16.167969 28.699219 16.039062 28.671875 15.84375 C 28.648438 15.664062 28.496094 15.128906 28.339844 15.09375 C 28.140625 15.054688 27.996094 15.398438 27.753906 15.511719 C 27.625 15.574219 27.382812 15.617188 27.253906 15.59375 C 27.167969 15.566406 27.015625 15.507812 27.003906 15.34375 C 26.988281 15.15625 27.136719 15.125 27.171875 14.929688 C 27.140625 14.808594 27.035156 14.851562 26.921875 14.761719 C 26.789062 14.660156 26.679688 14.449219 26.503906 14.425781 C 26.417969 14.425781 26.257812 14.503906 26.171875 14.507812 C 26.011719 14.507812 25.886719 14.46875 25.753906 14.425781 C 25.8125 14.398438 25.863281 14.363281 25.921875 14.34375 C 26.25 14.230469 26.589844 14.1875 26.921875 14.09375 C 26.980469 14.066406 27.03125 14.027344 27.089844 14.011719 C 27.171875 14.097656 27.242188 14.285156 27.339844 14.34375 C 27.410156 14.382812 27.511719 14.316406 27.59375 14.34375 C 27.855469 14.421875 28.054688 14.570312 28.339844 14.511719 C 28.441406 14.339844 28.144531 14.316406 28.257812 14.179688 C 28.449219 14.207031 28.609375 14.285156 28.761719 14.347656 C 28.964844 14.195312 29.101562 14.171875 29.09375 13.929688 C 29.089844 13.808594 28.929688 13.761719 28.84375 13.679688 C 29.011719 13.652344 29.171875 13.621094 29.34375 13.597656 C 29.359375 13.644531 29.398438 13.675781 29.425781 13.679688 C 29.527344 13.707031 29.867188 13.542969 29.929688 13.511719 C 29.9375 13.511719 29.914062 13.441406 29.929688 13.429688 C 30.601562 13.355469 31.316406 13.347656 32.011719 13.347656 M 25.34375 14.597656 C 25.285156 14.710938 25.21875 14.808594 25.09375 14.847656 C 25.125 15.019531 24.871094 15.128906 24.84375 15.261719 C 24.828125 15.355469 24.839844 15.515625 24.84375 15.597656 C 24.898438 16.445312 24.175781 16.867188 23.34375 16.847656 C 23.179688 17 23.265625 17.300781 23.175781 17.511719 C 23.097656 17.691406 22.855469 17.863281 22.671875 17.847656 C 22.539062 17.847656 22.339844 17.636719 22.339844 17.511719 C 22.339844 17.359375 22.554688 17.269531 22.421875 17.097656 C 22.441406 16.980469 22.703125 16.867188 22.671875 16.679688 C 22.640625 16.484375 22.417969 16.628906 22.171875 16.597656 C 22.03125 16.570312 21.816406 16.5 21.671875 16.429688 C 21.941406 16.25 22.21875 16.09375 22.503906 15.929688 C 22.753906 15.78125 23 15.648438 23.253906 15.511719 C 23.925781 15.175781 24.644531 14.863281 25.335938 14.597656 M 39.667969 16.59375 C 39.597656 16.59375 39.5625 16.644531 39.5 16.679688 C 39.363281 16.761719 39.355469 16.890625 39.25 16.929688 C 39.105469 16.984375 38.9375 16.957031 38.917969 17.097656 C 38.898438 17.207031 39.003906 17.242188 39 17.347656 C 38.945312 17.476562 38.859375 17.523438 38.832031 17.679688 C 39.011719 17.972656 39.441406 17.652344 39.664062 17.597656 C 39.765625 17.570312 39.859375 17.597656 39.917969 17.515625 C 39.976562 17.421875 39.949219 17.234375 40 17.097656 C 40.050781 16.949219 40.183594 16.984375 40.167969 16.847656 C 40.152344 16.714844 39.882812 16.578125 39.664062 16.597656 M 20.167969 18.679688 C 20.328125 18.722656 20.6875 19.195312 20.335938 19.347656 C 20.300781 19.371094 19.835938 19.441406 19.75 19.429688 C 19.628906 19.402344 19.542969 19.199219 19.417969 19.179688 C 19.171875 19.136719 18.835938 19.449219 18.667969 19.179688 C 18.710938 19.019531 18.898438 19.0625 19.085938 19.011719 C 19.417969 18.917969 19.878906 18.601562 20.167969 18.675781 M 20.832031 19.511719 C 20.914062 19.511719 20.984375 19.667969 21.082031 19.679688 C 21.179688 19.679688 21.277344 19.582031 21.335938 19.597656 C 21.484375 19.636719 21.558594 19.902344 21.417969 20.011719 C 21.300781 20.011719 21.253906 19.914062 21.167969 19.929688 C 20.925781 19.972656 20.847656 20.445312 20.664062 20.429688 C 20.496094 20.40625 20.410156 20.054688 20.582031 19.929688 C 20.589844 19.824219 20.496094 19.785156 20.5 19.679688 C 20.554688 19.613281 20.691406 19.503906 20.832031 19.511719 M 20 19.59375 C 20.050781 19.597656 20.0625 19.59375 20.082031 19.59375 C 20.058594 19.785156 19.976562 19.835938 19.832031 19.925781 C 19.578125 20.078125 19.410156 20.269531 19.328125 20.59375 C 19.304688 20.691406 19.035156 20.949219 18.914062 20.925781 C 18.628906 20.867188 19.015625 20.339844 19.082031 20.261719 C 19.152344 20.171875 19.246094 20.109375 19.332031 20.007812 C 19.414062 19.910156 19.421875 19.730469 19.5 19.675781 C 19.585938 19.617188 19.851562 19.589844 20 19.59375 M 45.332031 19.675781 C 45.460938 19.710938 45.484375 19.859375 45.582031 19.925781 C 45.652344 19.976562 45.753906 19.960938 45.832031 20.007812 C 45.925781 20.066406 45.976562 20.167969 46.082031 20.261719 C 46.234375 20.386719 46.457031 20.496094 46.667969 20.59375 C 46.710938 20.621094 46.785156 20.65625 46.835938 20.675781 C 46.980469 20.867188 47.113281 21.0625 47.25 21.261719 C 47.265625 21.367188 47.285156 21.523438 47.335938 21.59375 C 47.472656 21.78125 47.683594 21.945312 47.835938 22.175781 C 47.832031 22.398438 47.929688 22.53125 48.085938 22.59375 C 48.28125 22.921875 48.484375 23.253906 48.671875 23.59375 C 48.746094 23.746094 48.761719 23.9375 48.839844 24.09375 C 48.78125 24.09375 48.722656 24.121094 48.671875 24.09375 C 48.492188 23.785156 47.578125 23.722656 47.503906 24.175781 C 47.46875 24.375 47.632812 24.640625 47.335938 24.675781 C 47.144531 24.703125 46.925781 24.480469 46.667969 24.425781 C 46.5625 24.398438 46.417969 24.464844 46.335938 24.425781 C 46.140625 24.359375 46.167969 24.128906 46 24.011719 C 45.90625 23.945312 45.65625 23.859375 45.5 23.84375 C 45.402344 23.84375 45.351562 23.84375 45.25 23.84375 C 45.128906 23.816406 44.933594 23.816406 44.832031 23.761719 C 44.738281 23.699219 44.523438 23.59375 44.5 23.507812 C 44.460938 23.378906 44.738281 23.207031 44.75 23.09375 C 44.753906 23.011719 44.6875 22.972656 44.667969 22.84375 C 44.65625 22.765625 44.683594 22.644531 44.667969 22.59375 C 44.640625 22.5 44.476562 22.425781 44.335938 22.425781 C 44.207031 22.425781 44.109375 22.503906 44 22.507812 C 43.84375 22.507812 43.527344 22.410156 43.335938 22.425781 C 43.21875 22.425781 43.109375 22.5 43 22.507812 C 42.691406 22.535156 42.492188 22.480469 42.253906 22.507812 C 42.074219 22.507812 41.75 22.597656 41.585938 22.675781 C 41.503906 22.710938 41.441406 22.789062 41.335938 22.84375 C 41.285156 22.871094 41.230469 22.898438 41.167969 22.925781 C 41.066406 22.972656 40.929688 23.066406 40.832031 23.09375 C 40.695312 23.128906 40.503906 23.09375 40.25 23.09375 C 40.066406 23.09375 39.75 23.054688 39.75 22.84375 C 39.746094 22.515625 40.355469 22.652344 40.664062 22.59375 C 40.78125 22.566406 40.859375 22.425781 41 22.339844 C 41.066406 22.300781 41.101562 22.300781 41.167969 22.257812 C 41.273438 22.183594 41.484375 22.011719 41.5 21.925781 C 41.515625 21.847656 41.40625 21.734375 41.417969 21.675781 C 41.429688 21.601562 41.570312 21.519531 41.667969 21.425781 C 41.816406 21.277344 41.898438 21.105469 42.085938 21.007812 C 42.210938 20.941406 42.445312 20.945312 42.5 20.839844 C 42.511719 20.726562 42.496094 20.695312 42.5 20.589844 C 42.578125 20.519531 42.601562 20.433594 42.667969 20.421875 C 42.859375 20.378906 43.027344 20.515625 43.253906 20.503906 C 43.347656 20.503906 43.480469 20.476562 43.585938 20.421875 C 43.671875 20.363281 43.75 20.300781 43.835938 20.253906 C 43.929688 20.207031 43.972656 20.097656 44.085938 20.085938 C 44.367188 20.058594 44.542969 20.417969 44.671875 20.585938 C 44.777344 20.730469 45.078125 20.90625 45.253906 21.003906 C 45.351562 21.058594 45.476562 21.121094 45.585938 21.171875 C 45.820312 21.273438 46.246094 21.609375 46.253906 21.835938 C 46.257812 21.949219 46.152344 21.980469 46.171875 22.089844 C 46.347656 22.117188 46.5 21.929688 46.503906 21.753906 C 46.507812 21.644531 46.402344 21.621094 46.421875 21.503906 C 46.503906 21.328125 46.816406 21.476562 46.921875 21.421875 C 46.90625 21.222656 46.59375 21.191406 46.421875 21.089844 C 46.332031 21.03125 46.269531 20.960938 46.171875 20.921875 C 46.03125 20.863281 45.863281 20.835938 45.753906 20.753906 C 45.65625 20.675781 45.605469 20.539062 45.503906 20.417969 C 45.359375 20.25 45.082031 20.226562 45.171875 19.835938 C 45.214844 19.777344 45.269531 19.652344 45.339844 19.667969 M 21.839844 20.25 L 22.09375 20.25 C 22.183594 20.253906 22.304688 20.203125 22.34375 20.25 C 22.285156 20.484375 21.777344 20.417969 21.59375 20.335938 C 21.605469 20.246094 21.726562 20.261719 21.84375 20.25 M 21.007812 20.667969 C 21.070312 20.667969 21.113281 20.640625 21.175781 20.667969 C 21.011719 20.804688 20.792969 20.914062 20.511719 21 C 20.375 21.042969 20.203125 21.066406 20.175781 20.917969 C 20.148438 20.734375 20.304688 20.769531 20.429688 20.75 C 20.582031 20.722656 20.828125 20.671875 21.011719 20.667969 M 44.175781 20.667969 C 44.0625 20.703125 44 20.96875 44.175781 21 C 44.261719 20.953125 44.28125 20.820312 44.261719 20.667969 C 44.214844 20.621094 44.214844 20.667969 44.175781 20.667969 M 44.09375 21.167969 C 44.039062 21.195312 43.988281 21.195312 43.925781 21.25 C 43.929688 21.449219 43.964844 21.578125 43.925781 21.753906 C 44.042969 21.972656 44.285156 21.820312 44.34375 21.667969 C 44.410156 21.300781 44.261719 21.121094 44.09375 21.167969 M 45.261719 22.167969 C 45.390625 22.382812 45.636719 22.53125 45.925781 22.582031 C 46.03125 22.503906 46.042969 22.304688 46.09375 22.167969 C 45.96875 22.171875 45.835938 22.167969 45.679688 22.167969 C 45.519531 22.167969 45.351562 22.09375 45.261719 22.167969 M 14.097656 29.332031 C 14.535156 29.304688 14.664062 29.90625 15.015625 30.082031 C 15.105469 30.125 15.234375 30.140625 15.347656 30.164062 C 15.441406 30.191406 15.511719 30.21875 15.601562 30.246094 C 15.789062 30.3125 16.03125 30.273438 16.183594 30.328125 C 16.410156 30.429688 16.574219 30.882812 16.765625 30.996094 C 16.777344 31.109375 16.734375 31.242188 16.765625 31.328125 C 16.859375 31.453125 17.03125 31.5 17.183594 31.578125 C 17.363281 31.679688 17.429688 31.917969 17.597656 31.996094 C 17.65625 32.023438 17.757812 31.96875 17.851562 31.996094 C 18.085938 32.066406 18.148438 32.386719 18.351562 32.328125 C 18.484375 32.289062 18.496094 32.121094 18.519531 31.996094 C 18.605469 31.898438 18.714844 31.746094 18.851562 31.746094 C 19.074219 31.746094 19.105469 31.945312 19.1875 32.160156 C 19.230469 32.28125 19.320312 32.449219 19.355469 32.574219 C 19.410156 32.796875 19.398438 33.441406 19.355469 33.574219 C 19.296875 33.738281 19.070312 33.8125 18.9375 33.992188 C 18.875 34.074219 18.820312 34.179688 18.769531 34.242188 C 18.683594 34.347656 18.585938 34.394531 18.519531 34.492188 C 18.480469 34.550781 18.472656 34.667969 18.4375 34.742188 C 18.328125 34.96875 18.179688 35.136719 18.269531 35.410156 C 18.304688 35.523438 18.433594 35.613281 18.4375 35.742188 C 18.4375 35.898438 18.128906 35.992188 18.101562 36.160156 C 18.085938 36.285156 18.230469 36.496094 18.269531 36.660156 C 18.300781 36.785156 18.53125 36.910156 18.605469 36.992188 C 18.730469 37.132812 18.824219 37.316406 18.9375 37.496094 C 19.164062 37.839844 19.300781 38.242188 19.523438 38.578125 C 19.636719 38.753906 19.859375 38.894531 19.9375 39.078125 C 19.976562 39.171875 19.902344 39.328125 19.9375 39.410156 C 20.066406 39.699219 20.648438 40.019531 20.9375 40.160156 C 21.074219 40.226562 21.230469 40.160156 21.355469 40.242188 C 21.542969 40.347656 21.925781 40.660156 22.019531 40.828125 C 22.105469 40.976562 22.144531 41.339844 22.1875 41.574219 C 22.246094 41.886719 22.175781 42.152344 22.1875 42.492188 C 22.199219 42.675781 22.269531 42.808594 22.269531 42.992188 C 22.269531 43.058594 22.273438 43.179688 22.269531 43.242188 C 22.265625 43.464844 22.289062 43.6875 22.269531 43.910156 C 22.261719 44.03125 22.261719 44.140625 22.269531 44.242188 C 22.28125 44.351562 22.34375 44.394531 22.355469 44.496094 C 22.359375 44.597656 22.261719 44.746094 22.269531 44.828125 C 22.292969 45.050781 22.476562 45.207031 22.523438 45.410156 C 22.554688 45.574219 22.625 45.964844 22.605469 46.160156 C 22.589844 46.265625 22.539062 46.382812 22.523438 46.492188 C 22.511719 46.582031 22.535156 46.660156 22.523438 46.742188 C 22.503906 46.871094 22.429688 46.960938 22.4375 47.078125 C 22.453125 47.316406 22.652344 47.503906 22.691406 47.742188 C 22.703125 47.824219 22.6875 47.917969 22.691406 47.996094 C 22.691406 48.066406 22.75 48.09375 22.773438 48.164062 C 22.070312 47.761719 21.414062 47.316406 20.773438 46.828125 C 20.160156 46.367188 19.570312 45.859375 19.023438 45.328125 C 18.996094 45.300781 18.96875 45.273438 18.941406 45.246094 C 18.390625 44.703125 17.835938 44.105469 17.355469 43.496094 C 17.078125 43.144531 16.777344 42.785156 16.523438 42.414062 C 16.371094 42.195312 16.246094 41.976562 16.105469 41.75 C 16.019531 41.613281 15.9375 41.472656 15.855469 41.332031 C 15.617188 40.925781 15.394531 40.511719 15.1875 40.082031 C 15.058594 39.8125 14.972656 39.527344 14.855469 39.25 C 14.574219 38.589844 14.308594 37.945312 14.105469 37.25 C 13.960938 36.757812 13.878906 36.261719 13.773438 35.75 C 13.691406 35.359375 13.578125 34.980469 13.523438 34.582031 C 13.492188 34.367188 13.460938 34.132812 13.441406 33.914062 C 13.375 33.289062 13.355469 32.644531 13.355469 32 C 13.355469 31.195312 13.425781 30.441406 13.523438 29.667969 C 13.527344 29.640625 13.523438 29.609375 13.523438 29.585938 C 13.691406 29.585938 13.921875 29.339844 14.109375 29.332031 M 21.277344 31.332031 C 21.445312 31.253906 21.5 31.644531 21.359375 31.667969 C 21.226562 31.691406 21.144531 31.394531 21.277344 31.332031 "/>
</g>
</svg>
