
<svg xmlns="http://www.w3.org/2000/svg" xmlns:xlink="http://www.w3.org/1999/xlink" width="64px" height="64px" viewBox="0 0 64 64" version="1.1">
<g id="surface1">
<path style=" stroke:none;fill-rule:nonzero;fill:rgb(93.725491%,94.117647%,94.509804%);fill-opacity:1;" d="M 32 10.667969 C 20.179688 10.667969 10.667969 20.179688 10.667969 32 C 10.667969 43.820312 20.179688 53.332031 32 53.332031 C 37.058594 53.332031 41.6875 51.582031 45.332031 48.660156 L 45.332031 45.332031 L 45.082031 45.332031 C 41.71875 48.632812 37.105469 50.667969 32 50.667969 C 21.660156 50.667969 13.332031 42.339844 13.332031 32 C 13.332031 21.660156 21.660156 13.332031 32 13.332031 C 42.339844 13.332031 50.667969 21.660156 50.667969 32 C 50.667969 33.855469 50.386719 35.644531 49.886719 37.332031 L 52.640625 37.332031 C 53.078125 35.628906 53.332031 33.84375 53.332031 32 C 53.332031 20.179688 43.820312 10.667969 32 10.667969 M 29.332031 16 L 29.332031 34.667969 L 45.332031 34.667969 L 45.332031 32 L 32 32 L 32 16 L 29.332031 16 "/>
<path style=" stroke:none;fill-rule:nonzero;fill:rgb(23.921569%,68.235296%,91.37255%);fill-opacity:1;" d="M 39.082031 40 L 39.082031 42.667969 L 46.667969 42.667969 C 48.875 42.667969 50.667969 44.457031 50.667969 46.667969 C 50.667969 48.875 48.875 50.667969 46.667969 50.667969 L 46.667969 53.332031 C 50.347656 53.332031 53.332031 50.347656 53.332031 46.667969 C 53.332031 42.984375 50.347656 40 46.667969 40 L 39.082031 40 "/>
</g>
</svg>
