
<svg xmlns="http://www.w3.org/2000/svg" xmlns:xlink="http://www.w3.org/1999/xlink" width="64px" height="64px" viewBox="0 0 64 64" version="1.1">
<g id="surface1">
<path style=" stroke:none;fill-rule:nonzero;fill:rgb(93.725491%,94.117647%,94.509804%);fill-opacity:1;" d="M 16 13.332031 C 14.527344 13.332031 13.332031 14.527344 13.332031 16 C 13.332031 17.472656 14.527344 18.667969 16 18.667969 C 17.472656 18.667969 18.667969 17.472656 18.667969 16 C 18.667969 14.527344 17.472656 13.332031 16 13.332031 Z M 24 13.332031 L 24 18.667969 L 53.332031 18.667969 L 53.332031 13.332031 Z M 16 29.332031 C 14.527344 29.332031 13.332031 30.527344 13.332031 32 C 13.332031 33.472656 14.527344 34.667969 16 34.667969 C 17.472656 34.667969 18.667969 33.472656 18.667969 32 C 18.667969 30.527344 17.472656 29.332031 16 29.332031 Z M 24 29.332031 L 24 34.667969 L 53.332031 34.667969 L 53.332031 29.332031 Z M 16 45.332031 C 14.527344 45.332031 13.332031 46.527344 13.332031 48 C 13.332031 49.472656 14.527344 50.667969 16 50.667969 C 17.472656 50.667969 18.667969 49.472656 18.667969 48 C 18.667969 46.527344 17.472656 45.332031 16 45.332031 Z M 24 45.332031 L 24 50.667969 L 53.332031 50.667969 L 53.332031 45.332031 Z M 24 45.332031 "/>
</g>
</svg>
