<?xml version="1.0" encoding="iso-8859-1"?>
<!-- Generator: Adobe Illustrator 21.0.0, SVG Export Plug-In . SVG Version: 6.00 Build 0)  -->
<svg version="1.1" id="Capa_1" xmlns="http://www.w3.org/2000/svg" xmlns:xlink="http://www.w3.org/1999/xlink" x="0px" y="0px"
	 viewBox="0 0 511.998 511.998" style="enable-background:new 0 0 511.998 511.998;" xml:space="preserve">
<g id="XMLID_1036_">
	<g id="XMLID_1037_">
		<g id="XMLID_1038_">
			<g id="XMLID_1039_">
				
					<rect x="331.503" y="328.862" transform="matrix(0.7071 -0.7071 0.7071 0.7071 -147.9427 357.2119)" style="fill:#B7C1C6;" width="51.438" height="56.653"/>
				<path style="fill:#5F9EEB;" d="M499.785,473.682l-26.07,26.07c-6.283,6.283-16.471,6.283-22.754,0l-90.751-90.751
					c-6.283-6.283-6.283-16.471,0-22.754l26.07-26.07c6.283-6.283,16.471-6.283,22.754,0l90.751,90.751
					C506.069,457.212,506.069,467.399,499.785,473.682z"/>
				<path style="fill:#3A82D0;" d="M409.038,360.177l90.747,90.747c6.283,6.283,6.283,16.472,0,22.755l-15.517,15.517
					c6.283-6.283,6.283-16.472,0-22.755l-90.747-90.747c-6.283-6.283-16.472-6.283-22.755,0l15.517-15.517
					C392.566,353.894,402.755,353.894,409.038,360.177z"/>
			</g>
			<g id="XMLID_1040_">
				
					<ellipse transform="matrix(0.7071 -0.7071 0.7071 0.7071 -83.6022 201.8831)" style="fill:#5F9EEB;" cx="201.893" cy="201.858" rx="194.393" ry="194.393"/>
				<path id="XMLID_1041_" style="fill:#3A82D0;" d="M201.894,369.541c-44.79,0-86.898-17.442-118.57-49.113
					c-65.379-65.379-65.379-171.76,0-237.139c31.671-31.671,73.78-49.113,118.57-49.113c44.79,0,86.898,17.442,118.569,49.113
					c65.379,65.379,65.379,171.76,0,237.139C288.792,352.099,246.683,369.541,201.894,369.541z"/>
				
					<ellipse transform="matrix(0.7071 -0.7071 0.7071 0.7071 -83.6022 201.8831)" style="fill:#9FF4E4;" cx="201.893" cy="201.858" rx="155.682" ry="155.682"/>
			</g>
		</g>
		<g id="XMLID_1042_">
			<g id="XMLID_1043_">
				<path id="XMLID_1044_" style="fill:#627687;" d="M113.176,228.577h176.777l4.662-22.742
					c12.075-58.902-32.924-114.061-93.05-114.061h0c-60.127,0-105.125,55.159-93.05,114.061L113.176,228.577z"/>
				<g id="XMLID_1045_">
					<g id="XMLID_1046_">
						<circle style="fill:#F8C298;" cx="277.318" cy="237.479" r="22.495"/>
					</g>
					<g id="XMLID_1047_">
						<circle style="fill:#F8C298;" cx="125.81" cy="237.479" r="22.495"/>
					</g>
				</g>
				<path id="XMLID_1048_" style="fill:#FFD6C0;" d="M201.564,312.82L201.564,312.82c-30.577,0-56.369-22.77-60.159-53.112
					l-11.19-89.586h142.698l-11.19,89.586C257.932,290.049,232.141,312.82,201.564,312.82z"/>
				<path id="XMLID_1049_" style="fill:#627687;" d="M121.242,194.019c0,0,30.804,8.7,59.098-11.952
					c0,0,63.179,44.795,124.652,1.404c3.119-2.201,3.039-6.851-0.18-8.903l-38.188-24.339H121.242V194.019z"/>
			</g>
		</g>
		<g id="XMLID_1050_">
			<circle style="fill:#EB5777;" cx="366.485" cy="92.776" r="63.249"/>
		</g>
	</g>
	<g id="XMLID_1051_">
		<path id="XMLID_1052_" d="M505.089,445.625l-49.988-49.988c-2.93-2.929-7.678-2.929-10.607,0c-2.929,2.929-2.929,7.678,0,10.606
			l49.989,49.989c1.622,1.622,2.516,3.779,2.516,6.073c0,2.294-0.894,4.451-2.517,6.074l-26.068,26.07
			c-3.35,3.351-8.8,3.349-12.147,0l-90.752-90.751c-3.35-3.349-3.35-8.798,0-12.147l26.07-26.07c3.348-3.349,8.799-3.349,12.146,0
			l17.668,17.668c2.93,2.929,7.678,2.929,10.607,0c2.929-2.929,2.929-7.678,0-10.606l-17.668-17.668
			c-5.241-5.24-12.353-7.484-19.204-6.753l-28.919-28.919c16.996-23.737,28.623-50.866,34.076-79.891
			c0.765-4.071-1.915-7.991-5.986-8.756c-4.065-0.766-7.991,1.915-8.756,5.986c-6.957,37.028-24.766,70.732-51.502,97.469
			c-35.3,35.299-82.232,54.74-132.153,54.74c-49.922,0-96.854-19.44-132.153-54.74C34.44,298.713,15,251.779,15,201.858
			c0-49.921,19.44-96.854,54.74-132.153c64.67-64.67,166.949-72.757,240.688-20.018c-4.859,6.306-8.676,13.447-11.2,21.173
			c-29.636-22.077-65.852-33.414-103.174-32.079c-41.36,1.472-80.266,18.409-109.548,47.691
			c-27.638,27.638-44.451,64.303-47.341,103.242c-0.307,4.131,2.794,7.728,6.925,8.035c0.188,0.014,0.376,0.021,0.563,0.021
			c3.89,0,7.179-3.004,7.472-6.945c2.624-35.355,17.891-68.648,42.989-93.746c26.59-26.59,61.917-41.97,99.475-43.307
			c36.331-1.292,71.489,10.617,99.377,33.586c-0.136,1.791-0.228,3.594-0.228,5.419c0,31.152,20.248,57.647,48.268,67.065
			c15.389,52.187,1.176,108.292-37.331,146.798c-57.775,57.776-151.785,57.776-209.561,0c-23.111-23.111-37.647-52.407-42.036-84.72
			c-0.558-4.104-4.332-6.98-8.441-6.422c-4.104,0.557-6.979,4.336-6.422,8.441c4.834,35.592,20.842,67.858,46.292,93.308
			c31.813,31.813,73.601,47.719,115.388,47.719s83.575-15.906,115.388-47.719c40.527-40.527,56.617-98.754,43.17-153.997
			c1.991,0.169,4,0.275,6.034,0.275c6.164,0,12.145-0.797,17.849-2.285c3.187,14.384,4.67,29.121,4.412,43.897
			c-0.072,4.142,3.227,7.558,7.368,7.63c0.045,0,0.089,0.001,0.134,0.001c4.081,0,7.425-3.272,7.496-7.369
			c0.291-16.693-1.481-33.34-5.26-49.556c22.969-11.703,38.748-35.569,38.748-63.066c0-39.011-31.737-70.749-70.748-70.749
			c-17.359,0-33.269,6.296-45.593,16.709c-79.791-58.361-191.39-50.006-261.76,20.362C21.001,97.231,0,147.93,0,201.858
			c0,53.928,21.001,104.628,59.133,142.76c38.133,38.133,88.833,59.133,142.761,59.133c42.685,0,83.339-13.168,117.349-37.563
			l28.912,28.912c-0.732,6.852,1.511,13.964,6.752,19.205l90.752,90.751c4.6,4.599,10.639,6.898,16.68,6.898
			c6.04-0.001,12.083-2.3,16.682-6.898l26.068-26.07c4.456-4.456,6.91-10.379,6.91-16.681
			C511.998,456.005,509.544,450.081,505.089,445.625z M422.233,92.776c0,30.74-25.009,55.749-55.748,55.749
			c-30.74,0-55.749-25.009-55.749-55.749s25.009-55.749,55.749-55.749C397.225,37.027,422.233,62.036,422.233,92.776z
			 M344.654,344.618c4.321-4.321,8.421-8.814,12.303-13.459l23.867,23.867l-25.765,25.765l-23.869-23.869
			C335.828,353.042,340.326,348.946,344.654,344.618z"/>
		<path id="XMLID_1056_" d="M125.81,267.474c3.089,0,6.145-0.506,9.064-1.432c6.491,31.298,34.244,54.278,66.689,54.278
			c32.447,0,60.199-22.98,66.69-54.278c2.919,0.927,5.976,1.432,9.064,1.432c16.539,0,29.994-13.456,29.994-29.995
			c0-7.573-2.827-14.495-7.474-19.78l2.123-10.359c0.957-4.67,1.575-9.409,1.884-14.125c1.842-1.153,3.67-2.346,5.472-3.617
			c3.52-2.485,5.56-6.537,5.458-10.837c-0.102-4.283-2.32-8.215-5.934-10.518l-7.432-4.737
			c-10.748-46.1-52.211-79.232-99.846-79.232c-30.921,0-59.865,13.742-79.412,37.702c-19.546,23.96-27.194,55.074-20.985,85.365
			l2.123,10.359c-4.647,5.284-7.474,12.206-7.474,19.78C95.815,254.018,109.271,267.474,125.81,267.474z M110.815,237.479
			c0-8.268,6.727-14.995,14.994-14.995c1.172,0,2.32,0.148,3.439,0.411l3.483,27.883c-2.12,1.11-4.468,1.696-6.922,1.696
			C117.542,252.474,110.815,245.747,110.815,237.479z M201.563,305.32c-26.739,0-49.401-20.008-52.716-46.542l-6.942-55.575
			c11.026-0.593,24.904-3.489,38.569-12.157c6.575,3.936,19.949,10.999,37.348,15.278c9.654,2.375,19.2,3.554,28.552,3.554
			c4.766,0,9.478-0.325,14.131-0.936l-6.225,49.836C250.966,285.311,228.303,305.32,201.563,305.32z M277.318,252.474
			c-2.455,0-4.802-0.586-6.922-1.695l3.483-27.884c1.119-0.262,2.266-0.41,3.439-0.41c8.268,0,14.994,6.727,14.994,14.995
			S285.586,252.474,277.318,252.474z M287.267,204.329l-0.931,4.542c-2.847-0.9-5.876-1.387-9.017-1.387
			c-0.508,0-1.015,0.013-1.519,0.038l0.226-1.806c3.977-1.145,7.896-2.526,11.748-4.142
			C287.615,202.494,287.454,203.414,287.267,204.329z M133.774,131.458c16.686-20.453,41.395-32.184,67.79-32.184
			c34.824,0,65.783,20.741,79.726,51.409l-10.636-6.779c-3.49-2.226-8.129-1.2-10.355,2.293c-2.227,3.493-1.2,8.129,2.293,10.356
			l35.443,22.59c-22.837,15.132-48.436,19.417-76.131,12.736c-21.948-5.295-37.087-15.833-37.227-15.931
			c-2.629-1.865-6.155-1.84-8.76,0.06c-19.8,14.452-41.074,12.838-49.304,11.474c-4.086-0.676-7.948,2.086-8.626,6.172
			c-0.677,4.086,2.086,7.948,6.173,8.626c0.761,0.126,1.624,0.254,2.56,0.375l0.608,4.868c-0.505-0.025-1.011-0.04-1.519-0.04
			c-3.141,0-6.17,0.488-9.017,1.387l-0.931-4.543C110.56,178.471,117.089,151.911,133.774,131.458z"/>
		<path id="XMLID_1063_" d="M176.135,235.986l-0.098-3.566c-0.113-4.141-3.576-7.41-7.702-7.292
			c-4.141,0.113-7.405,3.562-7.292,7.703l0.098,3.566c0.111,4.071,3.446,7.294,7.493,7.294c0.069,0,0.14-0.001,0.209-0.003
			C172.983,243.575,176.248,240.126,176.135,235.986z"/>
		<path id="XMLID_1064_" d="M234.285,225.128c-4.141,0.113-7.405,3.562-7.292,7.703l0.098,3.566
			c0.111,4.071,3.446,7.294,7.493,7.294c0.069,0,0.14-0.001,0.209-0.003c4.141-0.113,7.405-3.562,7.292-7.702l-0.098-3.566
			C241.875,228.279,238.437,225.01,234.285,225.128z"/>
		<path id="XMLID_1065_" d="M226.01,251.468c-3.355-2.429-8.043-1.681-10.474,1.675c-3.241,4.476-8.465,7.148-13.973,7.148
			c-5.507,0-10.73-2.672-13.972-7.148c-2.43-3.355-7.117-4.104-10.474-1.675c-3.354,2.429-4.104,7.119-1.675,10.473
			c6.054,8.359,15.818,13.35,26.12,13.35c10.303,0,20.067-4.991,26.121-13.35C230.114,258.587,229.364,253.897,226.01,251.468z"/>
		<path id="XMLID_1066_" d="M337.366,100.276h3.821v3.821c0,4.142,3.357,7.5,7.5,7.5s7.5-3.358,7.5-7.5v-3.821h3.82
			c4.143,0,7.5-3.358,7.5-7.5s-3.357-7.5-7.5-7.5h-3.82v-3.821c0-4.142-3.357-7.5-7.5-7.5s-7.5,3.358-7.5,7.5v3.821h-3.821
			c-4.143,0-7.5,3.358-7.5,7.5S333.224,100.276,337.366,100.276z"/>
		<path id="XMLID_1067_" d="M380.851,85.019c0.015,0,0.028,0,0.042,0v19.468c-4.008,0.153-7.212,3.441-7.212,7.485
			c0,4.142,3.357,7.5,7.5,7.5h14.423c4.143,0,7.5-3.358,7.5-7.5c0-4.044-3.203-7.332-7.211-7.485V73.579
			c0-2.623-1.37-5.054-3.612-6.414c-2.244-1.359-5.032-1.448-7.356-0.236l-7.548,3.938c-3.673,1.916-5.097,6.446-3.181,10.119
			C375.533,83.551,378.146,85.019,380.851,85.019z"/>
	</g>
</g>
<g>
</g>
<g>
</g>
<g>
</g>
<g>
</g>
<g>
</g>
<g>
</g>
<g>
</g>
<g>
</g>
<g>
</g>
<g>
</g>
<g>
</g>
<g>
</g>
<g>
</g>
<g>
</g>
<g>
</g>
</svg>
