<svg xmlns="http://www.w3.org/2000/svg" viewBox="0 0 64 64"><defs><style>.cls-1{fill:#ccc;}.cls-2{fill:#e6e6e6;}.cls-3{fill:#e4202b;}.cls-4{fill:#9ba1a9;}.cls-5{fill:#0097ce;}</style></defs><g id="Layer_52" data-name="Layer 52"><path class="cls-1" d="M52.55,4.39H49.16a.61.61,0,0,0-.56.81c.1,0,0,3.63,0,3.74a.59.59,0,0,0,.6.65h3.29a2.41,2.41,0,0,1,2.4,2.4V53.08a2.41,2.41,0,0,1-2.4,2.4H11.45a2.41,2.41,0,0,1-2.4-2.4V12a2.41,2.41,0,0,1,2.4-2.4h3.31a.6.6,0,0,0,.6-.6c0-.07,0-3.85.05-3.79a.61.61,0,0,0-.56-.81h-3.4A7.61,7.61,0,0,0,3.85,12V53.08a7.61,7.61,0,0,0,7.6,7.6h41.1a7.61,7.61,0,0,0,7.6-7.6V12A7.61,7.61,0,0,0,52.55,4.39Z"/><rect class="cls-2" x="7.85" y="8.39" width="48.29" height="48.29" rx="3.6"/><path class="cls-3" d="M52.54,8.39H11.45A3.61,3.61,0,0,0,7.85,12v4.94a.6.6,0,0,0,.6.6H55.54a.6.6,0,0,0,.6-.6V12A3.61,3.61,0,0,0,52.54,8.39Z"/><path class="cls-2" d="M16.9,3.32A2.29,2.29,0,0,0,14.16,5.5v7c0,2.95,4.91,2.95,4.93,0v-7A2.19,2.19,0,0,0,16.9,3.32Z"/><path class="cls-2" d="M32.28,3.32A2.29,2.29,0,0,0,29.54,5.5v7c0,2.95,4.91,2.95,4.93,0v-7A2.19,2.19,0,0,0,32.28,3.32Z"/><path class="cls-2" d="M47.66,3.32A2.3,2.3,0,0,0,44.91,5.5v7c0,2.95,4.92,2.95,4.94,0v-7A2.19,2.19,0,0,0,47.66,3.32Z"/><path class="cls-4" d="M47.08,33.61H44.54a12.83,12.83,0,0,0-1.34-3.23L45,28.59a.64.64,0,0,0,.18-.43.56.56,0,0,0-.18-.42l-3.82-3.83a.61.61,0,0,0-.85,0l-1.8,1.81a12.26,12.26,0,0,0-3.22-1.34V21.83a.6.6,0,0,0-.6-.6H29.29a.6.6,0,0,0-.6.6v2.55a12.26,12.26,0,0,0-3.22,1.34l-1.8-1.81a.61.61,0,0,0-.85,0L19,27.74a.56.56,0,0,0-.18.42.64.64,0,0,0,.18.43l1.8,1.79a12.83,12.83,0,0,0-1.34,3.23H16.92a.6.6,0,0,0-.61.6v5.41a.6.6,0,0,0,.61.6h2.54a12.83,12.83,0,0,0,1.34,3.23L19,45.24a.64.64,0,0,0-.18.43.56.56,0,0,0,.18.42l3.82,3.83a.61.61,0,0,0,.85,0l1.8-1.81a12.26,12.26,0,0,0,3.22,1.34V52a.6.6,0,0,0,.6.6h5.42a.6.6,0,0,0,.6-.6V49.45a12.26,12.26,0,0,0,3.22-1.34l1.8,1.81a.61.61,0,0,0,.85,0L45,46.09a.56.56,0,0,0,.18-.42.64.64,0,0,0-.18-.43l-1.8-1.79a12.83,12.83,0,0,0,1.34-3.23h2.54a.6.6,0,0,0,.61-.6V34.21A.6.6,0,0,0,47.08,33.61ZM32,43.68a6.77,6.77,0,0,1-6.76-6.76c.31-9,13.21-9,13.52,0A6.77,6.77,0,0,1,32,43.68Z"/><path class="cls-5" d="M14.65,21.12a.6.6,0,0,1-.6-.6V19a.6.6,0,0,1,.6-.6.6.6,0,0,1,.6.6v1.5A.6.6,0,0,1,14.65,21.12Z"/><path class="cls-5" d="M14.65,26.83a.6.6,0,0,1-.6-.6v-1.5a.6.6,0,0,1,.6-.6.6.6,0,0,1,.6.6v1.5A.6.6,0,0,1,14.65,26.83Z"/><path class="cls-5" d="M16.13,21.73a.61.61,0,0,1-.42-1l1.05-1.05a.6.6,0,1,1,.85.85l-1.06,1.05A.58.58,0,0,1,16.13,21.73Z"/><path class="cls-5" d="M18.23,23.2H16.74a.6.6,0,0,1,0-1.2h1.49A.6.6,0,0,1,18.23,23.2Z"/><path class="cls-5" d="M17.18,25.73a.58.58,0,0,1-.42-.17L15.71,24.5a.59.59,0,0,1,.84-.84l1.06,1.05A.6.6,0,0,1,17.18,25.73Z"/><path class="cls-5" d="M12.12,25.73a.6.6,0,0,1-.42-1l1.05-1.05a.59.59,0,0,1,.85,0,.58.58,0,0,1,0,.84l-1,1.06A.59.59,0,0,1,12.12,25.73Z"/><path class="cls-5" d="M12.57,23.2h-1.5a.6.6,0,0,1,0-1.2h1.5A.6.6,0,0,1,12.57,23.2Z"/><path class="cls-5" d="M13.18,21.73a.6.6,0,0,1-.43-.18L11.7,20.5a.59.59,0,0,1,0-.85.61.61,0,0,1,.85,0l1,1.05A.61.61,0,0,1,13.18,21.73Z"/><path class="cls-5" d="M14.13,48c-.89,0-.53-1.26-.6-1.88a.6.6,0,0,1,.6-.6c.89,0,.53,1.25.6,1.88A.6.6,0,0,1,14.13,48Z"/><path class="cls-5" d="M14.13,52.86c-.89,0-.53-1.25-.6-1.87a.6.6,0,0,1,.6-.6c.89,0,.53,1.25.6,1.87A.6.6,0,0,1,14.13,52.86Z"/><path class="cls-5" d="M15.39,48.51a.61.61,0,0,1-.43-1c.46-.35,1.1-1.51,1.75-.9a.59.59,0,0,1,0,.85C16.45,47.63,15.77,48.56,15.39,48.51Z"/><path class="cls-5" d="M17.18,49.77H15.91a.6.6,0,0,1,0-1.2h1.27A.6.6,0,0,1,17.18,49.77Z"/><path class="cls-5" d="M16.29,51.93c-.38.06-1.07-.88-1.33-1.08A.61.61,0,0,1,15,50c.65-.61,1.29.54,1.75.9A.61.61,0,0,1,16.29,51.93Z"/><path class="cls-5" d="M12,51.93a.61.61,0,0,1-.43-1c.47-.36,1.1-1.51,1.75-.9a.59.59,0,0,1,0,.85C13,51.05,12.35,52,12,51.93Z"/><path class="cls-5" d="M12.35,49.77H11.07a.6.6,0,0,1,0-1.2h1.28A.6.6,0,0,1,12.35,49.77Z"/><path class="cls-5" d="M12.87,48.51c-.38.06-1.07-.88-1.33-1.08a.6.6,0,0,1,0-.85c.65-.61,1.28.54,1.74.9A.61.61,0,0,1,12.87,48.51Z"/><path class="cls-5" d="M49.57,21.09a.6.6,0,0,1-.6-.6V19a.6.6,0,0,1,1.2,0v1.49A.6.6,0,0,1,49.57,21.09Z"/><path class="cls-5" d="M49.57,26.8a.6.6,0,0,1-.6-.6V24.71a.6.6,0,0,1,1.2,0V26.2A.6.6,0,0,1,49.57,26.8Z"/><path class="cls-5" d="M51,21.71a.61.61,0,0,1-.42-1l1.05-1.05a.6.6,0,0,1,.85.85l-1.05,1.05A.6.6,0,0,1,51,21.71Z"/><path class="cls-5" d="M53.15,23.18H51.66a.6.6,0,0,1,0-1.2h1.49A.6.6,0,0,1,53.15,23.18Z"/><path class="cls-5" d="M52.1,25.71a.65.65,0,0,1-.43-.17l-1.05-1.06a.6.6,0,0,1,.85-.85l1.05,1.06A.6.6,0,0,1,52.1,25.71Z"/><path class="cls-5" d="M47,25.71a.6.6,0,0,1-.43-1l1.06-1.06a.6.6,0,0,1,.85.85l-1.06,1.06A.63.63,0,0,1,47,25.71Z"/><path class="cls-5" d="M47.48,23.18H46A.6.6,0,0,1,46,22h1.49A.6.6,0,0,1,47.48,23.18Z"/><path class="cls-5" d="M48.09,21.71a.59.59,0,0,1-.42-.18l-1.06-1.05a.61.61,0,0,1,0-.85.59.59,0,0,1,.85,0l1.06,1.05A.61.61,0,0,1,48.09,21.71Z"/><path class="cls-5" d="M48.82,47.17a.6.6,0,0,1-.6-.6V45.08a.6.6,0,0,1,1.2,0v1.49A.6.6,0,0,1,48.82,47.17Z"/><path class="cls-5" d="M48.82,52.88a.6.6,0,0,1-.6-.6V50.79a.6.6,0,0,1,1.2,0v1.49A.6.6,0,0,1,48.82,52.88Z"/><path class="cls-5" d="M50.3,47.78a.6.6,0,0,1-.43-1l1.06-1.06a.6.6,0,1,1,.85.85l-1.06,1.06A.63.63,0,0,1,50.3,47.78Z"/><path class="cls-5" d="M52.4,49.26H50.91a.6.6,0,0,1,0-1.2H52.4A.6.6,0,0,1,52.4,49.26Z"/><path class="cls-5" d="M51.35,51.79a.59.59,0,0,1-.42-.18l-1.06-1a.6.6,0,0,1,.85-.85l1.06,1A.61.61,0,0,1,51.35,51.79Z"/><path class="cls-5" d="M46.29,51.79a.61.61,0,0,1-.42-1l1.05-1a.6.6,0,0,1,.85.85l-1.05,1A.61.61,0,0,1,46.29,51.79Z"/><path class="cls-5" d="M46.73,49.26H45.24a.6.6,0,0,1,0-1.2h1.49A.6.6,0,0,1,46.73,49.26Z"/><path class="cls-5" d="M47.35,47.78a.63.63,0,0,1-.43-.17l-1.05-1.06a.59.59,0,0,1,0-.85.61.61,0,0,1,.85,0l1.05,1.06A.6.6,0,0,1,47.35,47.78Z"/><path d="M32,43.68a6.77,6.77,0,0,0,6.76-6.76c-.31-9-13.21-9-13.52,0A6.77,6.77,0,0,0,32,43.68Zm0-12.33c7.35.23,7.35,10.9,0,11.13C24.65,42.25,24.65,31.58,32,31.35Z"/><path d="M19,28.59l1.8,1.79a12.83,12.83,0,0,0-1.34,3.23H16.92a.6.6,0,0,0-.61.6v5.41a.6.6,0,0,0,.61.6h2.54a12.83,12.83,0,0,0,1.34,3.23L19,45.24a.64.64,0,0,0-.18.43.56.56,0,0,0,.18.42l3.82,3.83a.61.61,0,0,0,.85,0l1.8-1.81a12.26,12.26,0,0,0,3.22,1.34V52a.6.6,0,0,0,.6.6h5.42a.6.6,0,0,0,.6-.6V49.45a12.26,12.26,0,0,0,3.22-1.34l1.8,1.81a.61.61,0,0,0,.85,0L45,46.09a.56.56,0,0,0,.18-.42.64.64,0,0,0-.18-.43l-1.8-1.79a12.83,12.83,0,0,0,1.34-3.23h2.54a.6.6,0,0,0,.61-.6V34.21a.6.6,0,0,0-.61-.6H44.54a12.83,12.83,0,0,0-1.34-3.23L45,28.59a.64.64,0,0,0,.18-.43.56.56,0,0,0-.18-.42l-3.82-3.83a.61.61,0,0,0-.85,0l-1.8,1.81a12.26,12.26,0,0,0-3.22-1.34V21.83a.6.6,0,0,0-.6-.6H29.29a.6.6,0,0,0-.6.6v2.55a12.26,12.26,0,0,0-3.22,1.34l-1.8-1.81a.61.61,0,0,0-.85,0L19,27.74A.6.6,0,0,0,19,28.59Zm4.25-3.4,1.7,1.7.1.07a.56.56,0,0,0,.61,0,12.13,12.13,0,0,1,3.76-1.56.62.62,0,0,0,.47-.58V22.43h4.2v2.41a.64.64,0,0,0,.48.58A12,12,0,0,1,38.34,27,.56.56,0,0,0,39,27l.1-.07,1.7-1.7,3,3L42,29.86a.67.67,0,0,0-.16.47,16.33,16.33,0,0,1,1.65,4.07.61.61,0,0,0,.57.41h2.4V39h-2.4l-.17,0a.62.62,0,0,0-.4.39,11.61,11.61,0,0,1-1.57,3.78A.67.67,0,0,0,42,44l1.71,1.7-3,3s-1.84-1.88-1.85-1.8a.57.57,0,0,0-.54,0,12.27,12.27,0,0,1-3.78,1.57.62.62,0,0,0-.47.58V51.4H29.9V49c0-.06,0-.11,0-.17a.57.57,0,0,0-.39-.39,12,12,0,0,1-3.78-1.57.62.62,0,0,0-.74.08l-1.7,1.7-3-3L22,44l.09-.15a.57.57,0,0,0,0-.55,11.61,11.61,0,0,1-1.57-3.78.65.65,0,0,0-.59-.47h-2.4V34.81h2.4a.61.61,0,0,0,.57-.41,16.33,16.33,0,0,1,1.65-4.07.67.67,0,0,0-.16-.47l-1.71-1.7Z"/><path d="M52.54,4.39h-3A2.42,2.42,0,0,0,47.1,3.32,2.19,2.19,0,0,0,44.91,5.5V8.39H34.47V5.5a2.3,2.3,0,0,0-2.75-2.18A2.19,2.19,0,0,0,29.54,5.5V8.39H19.09V5.5A2.19,2.19,0,0,0,16.9,3.32a2.44,2.44,0,0,0-2.43,1.07h-3A7.61,7.61,0,0,0,3.85,12V53.08a7.61,7.61,0,0,0,7.61,7.6H52.54a7.61,7.61,0,0,0,7.61-7.6V12A7.61,7.61,0,0,0,52.54,4.39ZM46.11,5.5c0-.88.81-1,1.55-1a1,1,0,0,1,1,1c0,1.75,0,5.24,0,7,0,.89-.81,1-1.55,1a1,1,0,0,1-1-1Zm-15.37,0c0-.89.8-1,1.54-1a1,1,0,0,1,1,1V9s0,0,0,0v3.48a1,1,0,0,1-1,1c-.74.06-1.51-.09-1.54-1Zm-1.2,4.09v2.89a2.3,2.3,0,0,0,2.74,2.19,2.19,2.19,0,0,0,2.19-2.19V9.59H44.91v2.89a2.31,2.31,0,0,0,2.75,2.19,2.19,2.19,0,0,0,2.19-2.19V9.59h2.69a2.4,2.4,0,0,1,2.4,2.4v4.34H9.05V12a2.41,2.41,0,0,1,2.4-2.4h2.71v2.89a2.3,2.3,0,0,0,2.74,2.19,2.19,2.19,0,0,0,2.19-2.19V9.59ZM9.05,17.53H54.94V53.08a2.4,2.4,0,0,1-2.4,2.4H11.45a2.41,2.41,0,0,1-2.4-2.4Zm6.31-12c0-.89.8-1,1.54-1a1,1,0,0,1,1,1V9a0,0,0,0,0,0,0v3.47a1,1,0,0,1-1,1c-.74.06-1.51-.09-1.54-1ZM58.94,53.08a6.41,6.41,0,0,1-6.4,6.4H11.46a6.41,6.41,0,0,1-6.4-6.4V12a6.41,6.41,0,0,1,6.4-6.4h2.7v2.8H11.45A3.6,3.6,0,0,0,7.85,12V53.08a3.6,3.6,0,0,0,3.6,3.6H52.54a3.6,3.6,0,0,0,3.6-3.6V16.94s0,0,0,0V12a3.6,3.6,0,0,0-3.6-3.6H49.85V5.59h2.69a6.41,6.41,0,0,1,6.4,6.4Z"/><path d="M14.65,21.12a.6.6,0,0,0,.6-.6V19a.6.6,0,0,0-.6-.6.6.6,0,0,0-.6.6v1.5A.6.6,0,0,0,14.65,21.12Z"/><path d="M14.65,26.83a.6.6,0,0,0,.6-.6v-1.5a.6.6,0,0,0-.6-.6.6.6,0,0,0-.6.6v1.5A.6.6,0,0,0,14.65,26.83Z"/><path d="M16.13,21.73a.58.58,0,0,0,.42-.18l1.06-1.05a.6.6,0,1,0-.85-.85L15.71,20.7A.61.61,0,0,0,16.13,21.73Z"/><path d="M16.14,22.6a.6.6,0,0,0,.6.6h1.49a.6.6,0,1,0,0-1.2H16.74A.6.6,0,0,0,16.14,22.6Z"/><path d="M16.76,25.56a.6.6,0,0,0,.85-.85l-1.06-1.05a.59.59,0,0,0-.84.84Z"/><path d="M12.12,25.73a.59.59,0,0,0,.43-.17l1-1.06a.58.58,0,0,0,0-.84.59.59,0,0,0-.85,0L11.7,24.71A.6.6,0,0,0,12.12,25.73Z"/><path d="M11.07,23.2h1.5a.6.6,0,0,0,0-1.2h-1.5A.6.6,0,0,0,11.07,23.2Z"/><path d="M12.75,21.55a.6.6,0,0,0,.85-.85l-1-1.05a.6.6,0,0,0-.85.85Z"/><path d="M14.13,45.51c-.89,0-.53,1.25-.6,1.88a.6.6,0,0,0,.6.6c.89,0,.53-1.26.6-1.88A.6.6,0,0,0,14.13,45.51Z"/><path d="M14.13,50.39c-.89,0-.53,1.25-.6,1.87a.6.6,0,0,0,.6.6c.89,0,.53-1.25.6-1.87A.6.6,0,0,0,14.13,50.39Z"/><path d="M15.39,48.51c.38.06,1.07-.88,1.32-1.08a.59.59,0,0,0,0-.85c-.65-.61-1.29.55-1.75.9A.61.61,0,0,0,15.39,48.51Z"/><path d="M17.18,48.57H15.91a.6.6,0,0,0,0,1.2h1.27A.6.6,0,0,0,17.18,48.57Z"/><path d="M15.81,50c-.54-.55-1.4.31-.85.85.27.2.95,1.13,1.33,1.08a.61.61,0,0,0,.42-1Z"/><path d="M12.45,50l-.91.9a.6.6,0,0,0,.85.85l.9-.9C13.85,50.31,13,49.45,12.45,50Z"/><path d="M11.07,49.77h1.28a.6.6,0,0,0,0-1.2H11.07A.6.6,0,0,0,11.07,49.77Z"/><path d="M11.54,47.43l.91.9a.6.6,0,0,0,.84-.85l-.9-.9C11.85,46,11,46.89,11.54,47.43Z"/><path d="M49.57,21.09a.6.6,0,0,0,.6-.6V19A.6.6,0,0,0,49,19v1.49A.6.6,0,0,0,49.57,21.09Z"/><path d="M49.57,26.8a.6.6,0,0,0,.6-.6V24.71a.6.6,0,0,0-1.2,0V26.2A.6.6,0,0,0,49.57,26.8Z"/><path d="M51,21.71a.6.6,0,0,0,.43-.18l1.05-1.05a.6.6,0,0,0-.85-.85l-1.05,1.05A.61.61,0,0,0,51,21.71Z"/><path d="M51.06,22.58a.6.6,0,0,0,.6.6h1.49a.6.6,0,1,0,0-1.2H51.66A.6.6,0,0,0,51.06,22.58Z"/><path d="M51.67,25.54a.6.6,0,0,0,.85-.85l-1.05-1.06c-.54-.55-1.41.31-.85.85Z"/><path d="M48.52,23.63a.61.61,0,0,0-.85,0l-1.06,1.06a.6.6,0,1,0,.85.85l1.06-1.06A.61.61,0,0,0,48.52,23.63Z"/><path d="M46,23.18h1.49a.6.6,0,0,0,0-1.2H46A.6.6,0,0,0,46,23.18Z"/><path d="M47.67,21.53a.6.6,0,0,0,.85-.85l-1.06-1.05c-.54-.56-1.41.3-.85.85Z"/><path d="M48.22,45.08v1.49a.6.6,0,0,0,1.2,0V45.08A.6.6,0,0,0,48.22,45.08Z"/><path d="M48.82,50.19a.6.6,0,0,0-.6.6v1.49a.6.6,0,0,0,1.2,0V50.79A.6.6,0,0,0,48.82,50.19Z"/><path d="M50.3,47.78a.63.63,0,0,0,.42-.17l1.06-1.06a.6.6,0,1,0-.85-.85l-1.06,1.06A.6.6,0,0,0,50.3,47.78Z"/><path d="M52.4,48.06H50.91a.6.6,0,0,0,0,1.2H52.4A.6.6,0,0,0,52.4,48.06Z"/><path d="M50.72,49.71c-.54-.55-1.41.31-.85.85.27.21,1.11,1.3,1.48,1.23a.61.61,0,0,0,.43-1Z"/><path d="M46.92,49.71l-1.05,1a.61.61,0,0,0,.42,1c.37.08,1.22-1,1.48-1.23C48.33,50,47.47,49.15,46.92,49.71Z"/><path d="M47.33,48.66a.6.6,0,0,0-.6-.6H45.24a.6.6,0,1,0,0,1.2h1.49A.6.6,0,0,0,47.33,48.66Z"/><path d="M46.72,45.7c-.55-.55-1.41.31-.85.85.27.21,1.11,1.31,1.48,1.23a.6.6,0,0,0,.42-1Z"/></g></svg>