<?xml version="1.0" ?><svg viewBox="0 0 64 64" xmlns="http://www.w3.org/2000/svg"><g data-name="Fill Outline" id="Fill_Outline"><g data-name="Stroke copy" id="Stroke_copy"><g><rect height="40" rx="4" style="fill: #84d2f4" width="58" x="3" y="5"/><path d="M33,31A20,20,0,0,1,13,11V5H7A4,4,0,0,0,3,9V41a4,4,0,0,0,4,4H57a4,4,0,0,0,4-4V31Z" style="fill: #57b7eb"/><polygon points="39 45 25 45 21 53 43 53 39 45" style="fill: #fcbc04"/><path d="M16,53H48a4,4,0,0,1,4,4v2a0,0,0,0,1,0,0H12a0,0,0,0,1,0,0V57a4,4,0,0,1,4-4Z" style="fill: #f9e109"/><path d="M3,39H61a0,0,0,0,1,0,0v2a4,4,0,0,1-4,4H7a4,4,0,0,1-4-4V39A0,0,0,0,1,3,39Z" style="fill: #f9e109"/><g><rect height="25" style="fill: #c4f236" width="26" x="7" y="9"/><rect height="4" style="fill: #f89c8d" width="4" x="29" y="9"/><rect height="4" style="fill: #f9e109" width="4" x="29" y="17"/><circle cx="44" cy="15" r="2" style="fill: #c4f236"/><g><path d="M49,25h0a2,2,0,0,0-2-2h0a2,2,0,0,0-2,2h0a6,6,0,0,0,6,6h0a2,2,0,0,0,2-2h0a2,2,0,0,0-2-2h0A2,2,0,0,1,49,25Z" style="fill: #c4f236"/><path d="M52,29a6,6,0,0,1-5.986-5.73A1.99,1.99,0,0,0,45,25a6,6,0,0,0,6,6,2,2,0,0,0,2-2,1.905,1.905,0,0,0-.027-.263A1.972,1.972,0,0,1,52,29Z" style="fill: #a1d51c"/></g><path d="M45,16a1.992,1.992,0,0,1-1.82-2.82,2,2,0,1,0,2.64,2.64A1.99,1.99,0,0,1,45,16Z" style="fill: #a1d51c"/><path d="M30,17H29v4h4V20A3,3,0,0,1,30,17Z" style="fill: #fcbc04"/><path d="M30,9H29v4h4V12A3,3,0,0,1,30,9Z" style="fill: #f8664f"/></g><path d="M13,11V9H7V34H33V31A20,20,0,0,1,13,11Z" style="fill: #a1d51c"/><path d="M11,42a3.992,3.992,0,0,1-3.859-3H3v2a4,4,0,0,0,4,4H57a3.992,3.992,0,0,0,3.859-3Z" style="fill: #fcbc04"/><polygon points="39 45 25 45 21 53 39 45" style="fill: #e59730"/><path d="M19,56a3,3,0,0,1-3-3,4,4,0,0,0-4,4v2H52V57a3.977,3.977,0,0,0-.141-1Z" style="fill: #fcbc04"/></g></g><g data-name="Outline copy" id="Outline_copy"><g><path d="M61,36a1,1,0,0,0-1,1v4a3,3,0,0,1-3,3H7a3,3,0,0,1-3-3V40H57a1,1,0,0,0,0-2H4V19a1,1,0,0,0-2,0V41a5.006,5.006,0,0,0,5,5H38.382l3,6H22.618L23.9,49.447a1,1,0,0,0-1.79-.894L20.382,52H16a5.006,5.006,0,0,0-5,5v2a1,1,0,0,0,1,1H40a1,1,0,0,0,0-2H13V57a3,3,0,0,1,3-3H48a3,3,0,0,1,3,3v1H44a1,1,0,0,0,0,2h8a1,1,0,0,0,1-1V57a5.006,5.006,0,0,0-5-5H43.618l-3-6H57a5.006,5.006,0,0,0,5-5V37A1,1,0,0,0,61,36Z" style="fill: #323232"/><path d="M57,4H7A5.006,5.006,0,0,0,2,9v6a1,1,0,0,0,2,0V9A3,3,0,0,1,7,6H57a3,3,0,0,1,3,3V33a1,1,0,0,0,2,0V9A5.006,5.006,0,0,0,57,4Z" style="fill: #323232"/><path d="M40,14a1,1,0,0,0,0,2h1.184a2.746,2.746,0,0,0,.117.285l-.836.837a1,1,0,1,0,1.414,1.414l.836-.837a2.746,2.746,0,0,0,.285.117V19a1,1,0,0,0,2,0V17.816A3,3,0,0,0,46.816,16H48a1,1,0,0,0,0-2H46.816a2.746,2.746,0,0,0-.117-.285l.836-.837a1,1,0,1,0-1.414-1.414l-.836.837A2.746,2.746,0,0,0,45,12.184V11a1,1,0,0,0-2,0v1.184a2.746,2.746,0,0,0-.285.117l-.836-.837a1,1,0,1,0-1.414,1.414l.836.837a2.746,2.746,0,0,0-.117.285Zm4,2a1,1,0,1,1,1-1A1,1,0,0,1,44,16Z" style="fill: #323232"/><path d="M49.5,22.133l-.758.436A2.984,2.984,0,0,0,48,22.184V21a1,1,0,0,0-2,0v1.184a3,3,0,0,0-.744.385l-.758-.436a1,1,0,1,0-1,1.734l.614.353A2.953,2.953,0,0,0,44,25a6.945,6.945,0,0,0,.036.71l-1.278.32A1,1,0,0,0,43,28a.968.968,0,0,0,.243-.03l1.282-.32a6.989,6.989,0,0,0,.878,1.534l-1.109,1.109a1,1,0,1,0,1.414,1.414L46.816,30.6a6.973,6.973,0,0,0,1.535.878l-.321,1.281a1,1,0,0,0,.728,1.213A.968.968,0,0,0,49,34a1,1,0,0,0,.969-.757l.319-1.279A6.964,6.964,0,0,0,51,32a3.018,3.018,0,0,0,.469-.047l.611,1.438A1,1,0,0,0,53,34a.981.981,0,0,0,.391-.08,1,1,0,0,0,.529-1.311l-.689-1.622A2.983,2.983,0,0,0,53.816,30H55a1,1,0,0,0,0-2H53.816a2.994,2.994,0,0,0-.452-.825L53.8,26.6A1,1,0,0,0,52.2,25.4l-.521.689A3.011,3.011,0,0,0,51,26a1,1,0,0,1-1-1,2.953,2.953,0,0,0-.116-.78l.614-.353a1,1,0,0,0-1-1.734ZM51,28a1,1,0,0,1,0,2,5.006,5.006,0,0,1-5-5,1,1,0,0,1,2,0A3,3,0,0,0,51,28Z" style="fill: #323232"/><circle cx="51" cy="18" r="1" style="fill: #323232"/><circle cx="39" cy="24" r="1" style="fill: #323232"/><path d="M53.808,18.768A1,1,0,0,0,52.6,19.5,2.4,2.4,0,0,0,55.5,22.405a.381.381,0,0,1,.343.073.39.39,0,0,1,.153.314,1,1,0,0,0,2,0,2.4,2.4,0,0,0-2.98-2.328.383.383,0,0,1-.379-.1.387.387,0,0,1-.106-.379A1,1,0,0,0,53.808,18.768Z" style="fill: #323232"/><path d="M37.456,30.47A1.923,1.923,0,0,0,39.146,33a1,1,0,0,0,1.731.991,1.917,1.917,0,0,0,.1-1.972,1.8,1.8,0,0,0-1.6-.984,1,1,0,0,0-1.918-.561Z" style="fill: #323232"/><path d="M7,12a1,1,0,0,0-1,1V34a1,1,0,0,0,1,1H33a1,1,0,0,0,0-2H8V31h2.877a4.994,4.994,0,0,0,4.851-3.787l1.074-4.3a3,3,0,0,1,.414-.937l.288-.431a2.939,2.939,0,0,1,1.475-1.139c.005.07.021.139.021.21v2.4A8.067,8.067,0,0,0,22.9,29.9,7.7,7.7,0,0,0,26.854,31H33a1,1,0,0,0,0-2H30.854a5.685,5.685,0,0,1-2.928-.811l-.162-.1A5.721,5.721,0,0,1,25,23.211a4.987,4.987,0,0,0-4.642-4.978,4.884,4.884,0,0,0-.8-1.084l-.127-.127a4.925,4.925,0,0,0-6.9-.034,4.862,4.862,0,0,0-1.467,3.305l-.005.113a25.885,25.885,0,0,1-1.345,7.307A1.885,1.885,0,0,1,8,28.988V13A1,1,0,0,0,7,12Zm15.5,9.547a2.989,2.989,0,0,1,.5,1.664,7.725,7.725,0,0,0,2.451,5.607,5.691,5.691,0,0,1-1.526-.629A6.056,6.056,0,0,1,21,23.022v-2.4c0-.077-.019-.15-.022-.227A2.945,2.945,0,0,1,22.5,21.547Zm-9.435-1.064,0-.113a2.884,2.884,0,0,1,.872-1.958,2.918,2.918,0,0,1,4.085.024l.127.127,0,0a4.991,4.991,0,0,0-2.312,1.872l-.288.431a4.989,4.989,0,0,0-.69,1.561l-1.075,4.3a2.99,2.99,0,0,1-2.443,2.233,3.979,3.979,0,0,0,.268-.607A27.933,27.933,0,0,0,13.061,20.483Z" style="fill: #323232"/><path d="M29,14h4a1,1,0,0,0,1-1V9a1,1,0,0,0-1-1H29a1,1,0,0,0-1,1v4A1,1,0,0,0,29,14Zm1-4h2v2H30Z" style="fill: #323232"/><path d="M28,21a1,1,0,0,0,1,1h4a1,1,0,0,0,1-1V17a1,1,0,0,0-1-1H29a1,1,0,0,0-1,1Zm2-3h2v2H30Z" style="fill: #323232"/><path d="M25,8H22a1,1,0,0,0,0,2h3a1,1,0,0,0,0-2Z" style="fill: #323232"/><path d="M25,12H23a1,1,0,0,0,0,2h2a1,1,0,0,0,0-2Z" style="fill: #323232"/></g></g></g></svg>